<svg id="Layer_1" data-name="Layer 1" xmlns="http://www.w3.org/2000/svg" viewBox="0 0 1000 1000"><defs><style>.cls-1{fill:#0a364f;}</style></defs><path class="cls-1" d="M626.5,355.48H372.72a.85.85,0,0,0-.66,1.39l20.59,24V538.31H606.56V380.85l20.57-24A.84.84,0,0,0,626.5,355.48ZM495.39,529.89H401.07V383.5h94.32Zm102.76,0H503.8V383.5h94.35Zm2.27-154.81H398.79l-9.61-11.19H610Z"/><path class="cls-1" d="M417.66,398.07V518.7H478.8V398.07Zm52.72,112.22H426.07V406.48h44.31Z"/><path class="cls-1" d="M520.4,398.07V518.7h61.14V398.07Zm52.72,112.22H528.81V406.48h44.31Z"/><circle class="cls-1" cx="512.1" cy="458.38" r="4.23"/><circle class="cls-1" cx="487.09" cy="458.38" r="4.23"/><path class="cls-1" d="M605.3,559.84h4.31a41.79,41.79,0,0,0-4.56.23C605.13,560,605.22,559.93,605.3,559.84Z"/><path class="cls-1" d="M830.9,534.1a4.21,4.21,0,0,1-4.2,4.21H625.62a158.6,158.6,0,0,0,33.88-98.16c0-87.93-71.55-159.5-159.5-159.5s-159.5,71.57-159.5,159.5a158.67,158.67,0,0,0,33.86,98.16H172.5a4.21,4.21,0,0,1,0-8.42H358.12a166.89,166.89,0,0,1-26-89.74c0-92.58,75.34-167.91,167.92-167.91s167.91,75.33,167.91,167.91a166.89,166.89,0,0,1-26,89.74H826.7A4.2,4.2,0,0,1,830.9,534.1Z"/><path class="cls-1" d="M194.41,687.88a11.58,11.58,0,0,1-5,1.11,12.12,12.12,0,0,1-4.69-.86,11.23,11.23,0,0,1-3.73-2.42,10.88,10.88,0,0,1-2.42-3.72,13.55,13.55,0,0,1,0-9.5,10.93,10.93,0,0,1,2.42-3.73,11.23,11.23,0,0,1,3.73-2.42,12.31,12.31,0,0,1,4.69-.86,11.57,11.57,0,0,1,5,1.1,12.31,12.31,0,0,1,4.17,3.23l5.49-5a17.09,17.09,0,0,0-6.48-4.84,23.29,23.29,0,0,0-16.51-.25,18.43,18.43,0,0,0-6.31,3.95,17.75,17.75,0,0,0-4.19,6,20,20,0,0,0,0,15.14,18.17,18.17,0,0,0,4.15,6,18.77,18.77,0,0,0,6.31,4,21.94,21.94,0,0,0,7.86,1.39,21.69,21.69,0,0,0,8.69-1.69,17.12,17.12,0,0,0,6.48-4.85l-5.49-5A12.87,12.87,0,0,1,194.41,687.88Z"/><path class="cls-1" d="M229.47,658.94H221.1l-16.26,36.6h8.69l3.26-7.85,2.67-6.43,5.81-14,5.8,14,2.67,6.43,3.26,7.85h8.88Zm4.65,22.32H215.19l-2.14,6.43h23.26Z"/><path class="cls-1" d="M281.73,680.16a9.47,9.47,0,0,0-4.14-3.34,7.74,7.74,0,0,0-1-.36,8.62,8.62,0,0,0,4.82-8,8.23,8.23,0,0,0-3.47-6.9c-2.31-1.75-5.78-2.61-10.37-2.61H249.7v36.6h18.91q7.23,0,10.94-2.65a8.47,8.47,0,0,0,3.7-7.34A9.28,9.28,0,0,0,281.73,680.16Zm-23.61-14.85h8.41a8.79,8.79,0,0,1,4.73,1.06,3.54,3.54,0,0,1,1.64,3.23,3.61,3.61,0,0,1-1.64,3.26,8.6,8.6,0,0,1-4.73,1.08h-8.41ZM273,688.05a9.26,9.26,0,0,1-5,1.11h-9.92v-9H268a9.28,9.28,0,0,1,5,1.09,3.8,3.8,0,0,1,1.72,3.45A3.71,3.71,0,0,1,273,688.05Z"/><path class="cls-1" d="M289.68,658.94v36.6h8.52v-36.6Z"/><path class="cls-1" d="M332,658.94v22.19l-18.19-22.19h-7v36.6h8.37V673.33l18.19,22.21h7v-36.6Z"/><path class="cls-1" d="M357.49,688.74v-23h19.24v-6.79H349.08v36.6h28.33v-6.8Zm-.63-15.12v6.65h17.62v-6.65Z"/><path class="cls-1" d="M380,658.94v6.9h11.72v29.7h8.45v-29.7H411.9v-6.9Z"/><path class="cls-1" d="M455.49,683.76l-1.05-1.5h-9.08l2.1,3,7.09,10.25h9.11Zm-1.05-1.5h-9.08l2.1,3a20.63,20.63,0,0,0,8-1.53Z"/><path class="cls-1" d="M461.05,665.1a12.62,12.62,0,0,0-5.49-4.56,20.53,20.53,0,0,0-8.48-1.6H431.25v36.6h8.51V685.29h7.7l-2.1-3h9.08l1.05,1.5.07,0a12.33,12.33,0,0,0,5.49-4.48,14,14,0,0,0,0-14.16Zm-8.58,11.76c-1.33,1.14-3.28,1.68-5.85,1.68h-6.86v-12.7h6.86a9,9,0,0,1,5.85,1.64,6.57,6.57,0,0,1,0,9.38Z"/><path class="cls-1" d="M478.12,688.74v-23h19.25v-6.79H469.71v36.6H498v-6.8Zm-.61-15.12v6.65h17.61v-6.65Z"/><path class="cls-1" d="M504.79,658.94v36.6h8.52V665.73h19.14v-6.79Zm7.85,16.47v6.79H530.2v-6.79Z"/><path class="cls-1" d="M558,658.94h-8.35l-16.26,36.6h8.67l3.26-7.85,2.67-6.43,5.8-13.93,5.81,13.93,2.67,6.43,3.26,7.85h8.9Zm4.65,22.32H543.74l-2.14,6.43h23.26Z"/><path class="cls-1" d="M601.26,687.88a11.59,11.59,0,0,1-5,1.11,12.26,12.26,0,0,1-4.71-.86,11.1,11.1,0,0,1-3.7-2.42,11.23,11.23,0,0,1-2.44-3.72,13.55,13.55,0,0,1,0-9.5,11.28,11.28,0,0,1,2.44-3.73,11.1,11.1,0,0,1,3.7-2.42,12.45,12.45,0,0,1,4.71-.86,11.58,11.58,0,0,1,5,1.1,12.31,12.31,0,0,1,4.17,3.23l5.49-5a17,17,0,0,0-6.5-4.84,23.23,23.23,0,0,0-16.49-.25,18.71,18.71,0,0,0-6.33,3.95,18,18,0,0,0-4.17,6,20,20,0,0,0,0,15.14,18.17,18.17,0,0,0,4.15,6,18.67,18.67,0,0,0,6.31,4,21.94,21.94,0,0,0,7.86,1.39,21.53,21.53,0,0,0,8.67-1.69,17,17,0,0,0,6.5-4.85l-5.49-5A12.87,12.87,0,0,1,601.26,687.88Z"/><path class="cls-1" d="M616.51,658.94v36.6H625v-36.6Z"/><path class="cls-1" d="M658.85,658.94v22.21l-18.2-22.21h-7v36.6H642V673.33l18.19,22.21h7v-36.6Z"/><path class="cls-1" d="M700.61,687.4a10.13,10.13,0,0,1-1.7.75A14.31,14.31,0,0,1,694,689a12.61,12.61,0,0,1-4.79-.88,11.4,11.4,0,0,1-3.77-2.46,11.17,11.17,0,0,1-2.46-3.74,13.33,13.33,0,0,1,0-9.42,11.33,11.33,0,0,1,2.46-3.73,11.49,11.49,0,0,1,3.79-2.42,13.83,13.83,0,0,1,10,.15,13.38,13.38,0,0,1,4.39,3.18l5.39-5a17.6,17.6,0,0,0-6.57-4.71,22.69,22.69,0,0,0-8.74-1.62,22.39,22.39,0,0,0-8.06,1.39,18.69,18.69,0,0,0-6.37,3.95,17.52,17.52,0,0,0-4.21,6,20,20,0,0,0,0,15.14,18.17,18.17,0,0,0,4.15,6,18.56,18.56,0,0,0,6.33,4,22.5,22.5,0,0,0,8,1.39,27.31,27.31,0,0,0,7.84-1.18,22.59,22.59,0,0,0,7-3.47l-4.81-6.12A15.1,15.1,0,0,1,700.61,687.4Zm0-10.73V690.4l7.74,1.12V676.67Z"/><path class="cls-1" d="M739.5,688.64v-29.7H731v36.6h26.75v-6.9Z"/><path class="cls-1" d="M758.47,658.94v6.9h11.72v29.7h8.47v-29.7h11.69v-6.9Z"/><path class="cls-1" d="M829.16,667.58a17.5,17.5,0,0,0-7.11-6.37,23.36,23.36,0,0,0-10.52-2.27H794.92v36.6h16.61a23.23,23.23,0,0,0,10.52-2.28,17.36,17.36,0,0,0,7.11-6.37,19.62,19.62,0,0,0,0-19.31Zm-7.51,15.69a10.05,10.05,0,0,1-4.19,4,13.7,13.7,0,0,1-6.35,1.39h-7.67v-22.8h7.67a13.58,13.58,0,0,1,6.35,1.39,10,10,0,0,1,4.19,3.95,13,13,0,0,1,0,12.09Z"/><path class="cls-1" d="M196.79,624.62V571.87a18,18,0,0,1,.93-5.21,13.31,13.31,0,0,1,3-5.43H176.62a13.69,13.69,0,0,1,3,5.43,19.08,19.08,0,0,1,.93,5.21v52.75a19.08,19.08,0,0,1-.93,5.21,13.69,13.69,0,0,1-3,5.43h24.14a13.31,13.31,0,0,1-3-5.43A18,18,0,0,1,196.79,624.62Z"/><path class="cls-1" d="M288.38,625V571.51a19.06,19.06,0,0,1,1.07-5.15,11.63,11.63,0,0,1,2.91-5.13H270.25a5,5,0,0,1,1,2.78,6.82,6.82,0,0,1-.92,3L254.25,592.5,238,566.89a6.31,6.31,0,0,1-.82-2.88,5,5,0,0,1,1-2.78h-22a11.83,11.83,0,0,1,2.92,5,17.32,17.32,0,0,1,1.05,5.27V625a17.32,17.32,0,0,1-1.05,5.27,11.83,11.83,0,0,1-2.92,5h24.14a12.1,12.1,0,0,1-2.9-5.09,18.16,18.16,0,0,1-1.07-5.19v-32.2l18,27.57,17.94-27.57V625a19.4,19.4,0,0,1-1.05,5.13,11.91,11.91,0,0,1-2.93,5.15h24.15a11.7,11.7,0,0,1-2.91-5.09A18.52,18.52,0,0,1,288.38,625Z"/><path class="cls-1" d="M361.88,573.07a24.78,24.78,0,0,0-9.38-8.6,28.54,28.54,0,0,0-13.69-3.24H308.55a13.69,13.69,0,0,1,3.05,5.43,19,19,0,0,1,.92,5.21v52.75a19,19,0,0,1-.92,5.21,13.69,13.69,0,0,1-3.05,5.43h24.14a13.69,13.69,0,0,1-3.05-5.43,19,19,0,0,1-.92-5.21v-8.9l18.59-6q9.81-3.23,13.88-9.53t4.08-15.35v-.28A21.16,21.16,0,0,0,361.88,573.07Zm-12.8,12.77a11,11,0,0,1-1.85,6,9.86,9.86,0,0,1-5.93,4l-12.58,3.32V576.5h10.91a9.69,9.69,0,0,1,6.8,2.4,8.35,8.35,0,0,1,2.65,6.47Z"/><path class="cls-1" d="M505.25,616.75l-3.7,18.51H452.32a14.85,14.85,0,0,0,4-8.79v-54.6a15.44,15.44,0,0,0-4-10.64H498.4l3.24,18.51a9.35,9.35,0,0,0-4.55-2.67,27,27,0,0,0-6.09-.57H472.49v14h17.58a31.52,31.52,0,0,0,4.67-.31,11.25,11.25,0,0,0,4.12-1.54v19a11.54,11.54,0,0,0-4.12-1.51,27.46,27.46,0,0,0-4.48-.34H472.49V620h21.74a32.17,32.17,0,0,0,6.52-.57A7.54,7.54,0,0,0,505.25,616.75Z"/><path class="cls-1" d="M570.56,614A20.35,20.35,0,0,1,567,625.9,23.6,23.6,0,0,1,556.74,634a38.84,38.84,0,0,1-15.5,2.86q-13.69,0-23.41-5.26V610a21.16,21.16,0,0,0,8.65,8.56,28.3,28.3,0,0,0,13.56,3,27.74,27.74,0,0,0,9.8-1.58q4.17-1.57,4.17-5.09a5.73,5.73,0,0,0-3.16-5,61.55,61.55,0,0,0-9.88-4.39c-1.37-.51-2.65-1-3.87-1.52a82.92,82.92,0,0,1-8.27-3.76,22.37,22.37,0,0,1-3.74-2.5,25.79,25.79,0,0,1-4.4-4.61,19.2,19.2,0,0,1-3.43-11.67,19.58,19.58,0,0,1,3.2-10.77,21.73,21.73,0,0,1,9.4-7.86,34.74,34.74,0,0,1,14.89-2.93q12.87,0,20.72,5.39v20.14a24.07,24.07,0,0,0-8.5-6.87,28.1,28.1,0,0,0-10.64-3.28,17.32,17.32,0,0,0-2.23-.11,15.37,15.37,0,0,0-7.36,1.58,5,5,0,0,0-2.9,4.62,5.48,5.48,0,0,0,1.74,4,15.22,15.22,0,0,0,4.4,2.93c1.76.79,4.22,1.74,7.36,2.86l2,.73a93.66,93.66,0,0,1,9.84,4.23c.44.23.88.46,1.3.71a23.38,23.38,0,0,1,6.71,6A17.76,17.76,0,0,1,570.56,614Z"/><path class="cls-1" d="M635.42,614a20.22,20.22,0,0,1-3.62,11.92A23.32,23.32,0,0,1,621.58,634a38.7,38.7,0,0,1-15.5,2.86q-13.7,0-23.39-5.26V610a20.93,20.93,0,0,0,8.65,8.56,28.27,28.27,0,0,0,13.54,3A27.74,27.74,0,0,0,614.7,620q4.17-1.57,4.17-5.09a5.73,5.73,0,0,0-3.16-5,62.79,62.79,0,0,0-9.9-4.39,104.85,104.85,0,0,1-12.12-5.28,24,24,0,0,1-8.14-7.11,16.77,16.77,0,0,1-2.94-6.75,24.07,24.07,0,0,1-.49-4.92,18.65,18.65,0,0,1,.64-4.92,19.08,19.08,0,0,1,2.56-5.85,21.79,21.79,0,0,1,9.38-7.86,31.47,31.47,0,0,1,10.35-2.7,41.79,41.79,0,0,1,4.56-.23,49.35,49.35,0,0,1,7.51.53h0a30.86,30.86,0,0,1,13.19,4.86v20.14a24.33,24.33,0,0,0-8.52-6.87,28,28,0,0,0-10.64-3.28,16.75,16.75,0,0,0-2.21-.11,15.31,15.31,0,0,0-7.36,1.58,5,5,0,0,0-2.9,4.62,5.37,5.37,0,0,0,1.74,4,15.22,15.22,0,0,0,4.4,2.93c1.76.79,4.2,1.74,7.36,2.86a101.74,101.74,0,0,1,11.84,5,23.14,23.14,0,0,1,8,6.75A17.77,17.77,0,0,1,635.42,614Z"/><path class="cls-1" d="M669.47,624.62V571.87a19,19,0,0,1,.92-5.21,13.69,13.69,0,0,1,3.05-5.43H649.3a13.69,13.69,0,0,1,3.05,5.43,19,19,0,0,1,.92,5.21v52.75a19,19,0,0,1-.92,5.21,13.69,13.69,0,0,1-3.05,5.43h24.14a13.69,13.69,0,0,1-3.05-5.43A19,19,0,0,1,669.47,624.62Z"/><path class="cls-1" d="M733.86,561.23a6.65,6.65,0,0,1,.93,2.31,15.71,15.71,0,0,1,.36,3.35,21.19,21.19,0,0,1-.19,2.31l-12.85,47.09-12.22-46.46a15.11,15.11,0,0,1-.27-3.05,16.45,16.45,0,0,1,.31-3.28,6.61,6.61,0,0,1,.88-2.27H686.48a22.5,22.5,0,0,1,6.86,9.82l16.55,55.12a15.42,15.42,0,0,1,.65,4.36,9.22,9.22,0,0,1-1.11,4.73h25.44a9.22,9.22,0,0,1-1.11-4.73,15.42,15.42,0,0,1,.65-4.36l16.47-53.73a22.08,22.08,0,0,1,7.32-11.21Z"/><path class="cls-1" d="M818.09,619.42a32.38,32.38,0,0,1-6.52.57H789.83V605.73H807.6a27.46,27.46,0,0,1,4.48.34,11.54,11.54,0,0,1,4.12,1.51v-19a11.25,11.25,0,0,1-4.12,1.54,31.42,31.42,0,0,1-4.67.31H789.83v-14h18.51a27.11,27.11,0,0,1,6.1.57,9.45,9.45,0,0,1,4.54,2.67l-3.24-18.51H769.66a15.44,15.44,0,0,1,4,10.64v54.6a15,15,0,0,1-4,8.79h49.21l3.7-18.51A7.5,7.5,0,0,1,818.09,619.42Z"/><path class="cls-1" d="M218,495.93a6.58,6.58,0,0,0-2.25-2.17,17,17,0,0,0-3.07-1.32c-1.12-.34-2.23-.63-3.37-.89s-2.16-.5-3.09-.8A5.8,5.8,0,0,1,204,489.6a2.44,2.44,0,0,1-.86-1.94,3.15,3.15,0,0,1,.59-1.81,4.21,4.21,0,0,1,1.87-1.3,9.13,9.13,0,0,1,3.3-.48,14.18,14.18,0,0,1,7.3,2.08l1.56-3.83a13.37,13.37,0,0,0-4.08-1.74,19.26,19.26,0,0,0-4.74-.61,14.13,14.13,0,0,0-6,1.09,7.87,7.87,0,0,0-3.53,2.86,7.28,7.28,0,0,0-1.16,4,6.4,6.4,0,0,0,.86,3.47,6.46,6.46,0,0,0,2.25,2.19,14.91,14.91,0,0,0,3.09,1.33c1.12.35,2.23.65,3.37.9s2.14.51,3.07.8a6.37,6.37,0,0,1,2.25,1.16,2.48,2.48,0,0,1,.86,1.95,2.88,2.88,0,0,1-.61,1.77,4.09,4.09,0,0,1-1.89,1.22,10.14,10.14,0,0,1-3.37.46,14,14,0,0,1-4.81-.84,13.63,13.63,0,0,1-3.93-2.08l-1.71,3.83a13.75,13.75,0,0,0,4.52,2.29,19.85,19.85,0,0,0,5.93.88,14.78,14.78,0,0,0,6-1.07,7.92,7.92,0,0,0,3.55-2.88,7.16,7.16,0,0,0,1.14-3.91A6.3,6.3,0,0,0,218,495.93Z"/><path class="cls-1" d="M224.65,480.34v26.5h4.92v-26.5Z"/><path class="cls-1" d="M256.28,480.34v18l-14.6-18h-4.06v26.5h4.88v-18l14.58,18h4.06v-26.5Z"/><path class="cls-1" d="M285.59,502.13a9.26,9.26,0,0,1-3.82.78,10.54,10.54,0,0,1-3.81-.67,9.14,9.14,0,0,1-3-1.94,8.89,8.89,0,0,1-2-2.94,9.46,9.46,0,0,1-.72-3.77,9.34,9.34,0,0,1,.72-3.74,8.6,8.6,0,0,1,2-2.94,8.27,8.27,0,0,1,3-1.94,10.13,10.13,0,0,1,3.81-.67,9.75,9.75,0,0,1,3.82.75,10.06,10.06,0,0,1,3.24,2.34l3.2-3a12,12,0,0,0-4.54-3.32,15.56,15.56,0,0,0-5.95-1.11,15.33,15.33,0,0,0-5.64,1,13.28,13.28,0,0,0-4.5,2.87,13.06,13.06,0,0,0-3,4.31,14.64,14.64,0,0,0,0,10.89,13.37,13.37,0,0,0,7.47,7.19,16.5,16.5,0,0,0,11.63-.14,12.23,12.23,0,0,0,4.54-3.33l-3.2-3A9.4,9.4,0,0,1,285.59,502.13Z"/><path class="cls-1" d="M302.63,502.68V484.51H317v-4.17H297.71v26.5h19.87v-4.16Zm-.38-11.32v4.06h13.17v-4.06Z"/><path class="cls-1" d="M689.22,502.68l7.1-6.69a19.32,19.32,0,0,0,2.76-3.17,9.37,9.37,0,0,0,1.3-2.68,10.91,10.91,0,0,0,.34-2.6,7,7,0,0,0-1.18-4,7.58,7.58,0,0,0-3.28-2.63,12.64,12.64,0,0,0-5-.92,14.63,14.63,0,0,0-5.89,1.15,10.3,10.3,0,0,0-4.19,3.24l3.45,2.61a7.28,7.28,0,0,1,2.71-2,8.4,8.4,0,0,1,3.45-.67,6.16,6.16,0,0,1,3.75,1,3.43,3.43,0,0,1,1.26,2.82,6.12,6.12,0,0,1-.23,1.54,6.36,6.36,0,0,1-.87,1.76,14.36,14.36,0,0,1-1.93,2.19l-10.56,10v3.28h19.52v-4.16Z"/><path class="cls-1" d="M726.21,486.19a11,11,0,0,0-4-4.63,10.87,10.87,0,0,0-11.32,0,10.89,10.89,0,0,0-4,4.63A19.27,19.27,0,0,0,707,501a10.86,10.86,0,0,0,4,4.64,10.93,10.93,0,0,0,11.32,0,10.93,10.93,0,0,0,4-4.64,19.63,19.63,0,0,0,0-14.81Zm-4.27,12.66a6.63,6.63,0,0,1-2.15,3.09,5.13,5.13,0,0,1-3.17,1,5.24,5.24,0,0,1-3.2-1,6.76,6.76,0,0,1-2.19-3.09,17.87,17.87,0,0,1,0-10.51,6.85,6.85,0,0,1,2.19-3.1,5.42,5.42,0,0,1,3.2-1,5.3,5.3,0,0,1,3.17,1,6.72,6.72,0,0,1,2.15,3.1,18.09,18.09,0,0,1,0,10.51Z"/><path class="cls-1" d="M752.65,486.19a11,11,0,0,0-4-4.63A10.15,10.15,0,0,0,743,480a10.27,10.27,0,0,0-5.67,1.59,10.91,10.91,0,0,0-4,4.63,19.63,19.63,0,0,0,0,14.81,10.88,10.88,0,0,0,4,4.64,10.35,10.35,0,0,0,5.67,1.58,10.22,10.22,0,0,0,5.64-1.58,11,11,0,0,0,4-4.64,19.63,19.63,0,0,0,0-14.81Zm-4.3,12.66a6.28,6.28,0,0,1-2.14,3.09,5.12,5.12,0,0,1-3.18,1,5.25,5.25,0,0,1-3.19-1,6.52,6.52,0,0,1-2.17-3.09,17.66,17.66,0,0,1,0-10.51,6.6,6.6,0,0,1,2.17-3.1,5.43,5.43,0,0,1,3.19-1,5.29,5.29,0,0,1,3.18,1,6.36,6.36,0,0,1,2.14,3.1,18.09,18.09,0,0,1,0,10.51Z"/><path class="cls-1" d="M757.76,480.34V489h4.58v-4.52h10.41l-9.9,22.33h5.21l10.31-23.19v-3.31Z"/><path class="cls-1" d="M830.91,727.76H169.09a4.21,4.21,0,1,1,0-8.41H830.91a4.21,4.21,0,1,1,0,8.41Z"/><path class="cls-1" d="M440.75,635.26a18.82,18.82,0,0,1-7.25-6.58c-2.13-3.07-4.48-7-7.09-11.65L422,608c5.2-2.42,8.73-5.57,10.64-9.48a25.84,25.84,0,0,0,1.5-3.85,31.48,31.48,0,0,0,1.36-8.6c0-.4,0-.8,0-1.2v-.28a21.24,21.24,0,0,0-3.38-11.48,24.85,24.85,0,0,0-9.38-8.6A28.59,28.59,0,0,0,409,561.23H378.77a13.53,13.53,0,0,1,2.86,5.51,20.23,20.23,0,0,1,1.12,5.13v52.75a15.45,15.45,0,0,1-4,10.64h24.15a15,15,0,0,1-3.09-5,16.89,16.89,0,0,1-.89-5.59v-8.9l7.87-2.58,7.67,15.45a9.86,9.86,0,0,1,.55,3.52,4.11,4.11,0,0,1-1.09,3.15Zm-29.23-39.41-12.58,3.32V576.5h10.92a9.68,9.68,0,0,1,6.79,2.4,8.32,8.32,0,0,1,2.65,6.47v1.39a6,6,0,0,1,0,.61,8.58,8.58,0,0,1-1.94,5A10.77,10.77,0,0,1,411.52,595.85Z"/></svg>