<svg xmlns="http://www.w3.org/2000/svg" xmlns:xlink="http://www.w3.org/1999/xlink" width="45" zoomAndPan="magnify" viewBox="0 0 33.75 33.749998" height="45" preserveAspectRatio="xMidYMid meet" version="1.0"><defs><clipPath id="30003e3fcb"><path d="M 0 0 L 33.5 0 L 33.5 33.5 L 0 33.5 Z M 0 0 " clip-rule="nonzero"/></clipPath></defs><g clip-path="url(#30003e3fcb)"><path fill="#ffffff" d="M 1.203125 21.984375 L 0.960938 21.984375 C 0.4375 21.984375 0.0078125 21.554688 0.0078125 21.027344 L 0.0078125 19.984375 C 0.0078125 19.460938 0.4375 19.03125 0.960938 19.03125 L 1.203125 19.03125 L 1.203125 17.5 C 1.203125 17.238281 1.417969 17.027344 1.679688 17.027344 L 3.480469 17.027344 L 3.480469 1.878906 C 3.480469 0.875 4.289062 0.0585938 5.292969 0.0507812 L 9.710938 0.0078125 C 10.21875 0.00390625 10.65625 0.179688 11.015625 0.535156 C 11.375 0.894531 11.558594 1.328125 11.558594 1.835938 L 11.558594 3.421875 L 12.09375 3.421875 C 12.355469 3.421875 12.570312 3.636719 12.570312 3.898438 L 12.570312 5.109375 C 13.707031 5.664062 14.496094 6.832031 14.496094 8.183594 C 14.496094 8.445312 14.28125 8.65625 14.019531 8.65625 L 8.144531 8.65625 C 7.882812 8.65625 7.671875 8.445312 7.671875 8.183594 C 7.671875 6.832031 8.457031 5.664062 9.597656 5.109375 L 9.597656 3.898438 C 9.597656 3.636719 9.808594 3.421875 10.070312 3.421875 L 10.609375 3.421875 L 10.609375 1.835938 C 10.609375 1.589844 10.519531 1.382812 10.347656 1.210938 C 10.175781 1.039062 9.964844 0.953125 9.71875 0.957031 L 5.300781 1 C 4.820312 1.003906 4.429688 1.394531 4.429688 1.878906 L 4.429688 17.027344 L 6.117188 17.027344 C 6.378906 17.027344 6.589844 17.238281 6.589844 17.5 L 6.589844 19.03125 L 19.339844 19.03125 C 19.695312 18.675781 19.917969 18.453125 19.917969 18.453125 L 19.148438 16.753906 L 17.851562 18.050781 C 17.230469 18.667969 16.21875 18.667969 15.597656 18.050781 C 14.976562 17.429688 14.976562 16.414062 15.597656 15.796875 L 18.171875 13.222656 L 17.585938 12.636719 C 17.402344 12.453125 17.402344 12.152344 17.585938 11.964844 L 19.171875 10.382812 C 19.355469 10.195312 19.65625 10.195312 19.84375 10.382812 L 20.046875 10.585938 L 21.441406 9.191406 C 21.53125 9.101562 21.652344 9.050781 21.777344 9.050781 C 21.902344 9.050781 22.023438 9.101562 22.113281 9.191406 C 22.128906 9.207031 22.144531 9.21875 22.15625 9.234375 L 25.515625 5.875 C 26.183594 5.207031 27.277344 5.207031 27.945312 5.875 L 32.519531 10.449219 C 33.1875 11.117188 33.1875 12.210938 32.519531 12.878906 L 31.8125 13.582031 C 31.628906 13.769531 31.328125 13.769531 31.144531 13.582031 L 26.921875 9.363281 C 26.816406 9.257812 26.644531 9.257812 26.539062 9.363281 L 24.410156 11.488281 C 24.660156 11.738281 24.90625 11.980469 25.148438 12.226562 L 26.394531 10.976562 C 26.582031 10.792969 26.882812 10.792969 27.066406 10.976562 L 30.40625 14.320312 C 30.59375 14.503906 30.59375 14.804688 30.40625 14.988281 L 28.824219 16.574219 L 26.367188 19.03125 L 32.492188 19.03125 C 33.019531 19.03125 33.449219 19.460938 33.449219 19.984375 L 33.449219 21.027344 C 33.449219 21.554688 33.019531 21.984375 32.492188 21.984375 L 32.25 21.984375 L 32.25 27.914062 C 32.25 29.738281 30.820312 31.238281 29.027344 31.351562 L 29.027344 32.03125 C 29.027344 32.839844 28.363281 33.5 27.554688 33.5 C 26.746094 33.5 26.082031 32.839844 26.082031 32.03125 L 26.082031 31.355469 L 7.273438 31.355469 L 7.273438 32.03125 C 7.273438 32.839844 6.609375 33.5 5.800781 33.5 C 4.992188 33.5 4.332031 32.839844 4.332031 32.03125 L 4.332031 31.34375 C 2.582031 31.183594 1.203125 29.703125 1.203125 27.914062 Z M 18.390625 19.980469 L 0.960938 19.980469 C 0.960938 19.980469 0.957031 19.980469 0.957031 19.984375 L 0.957031 21.027344 C 0.957031 21.03125 0.960938 21.035156 0.960938 21.035156 L 17.335938 21.035156 C 17.699219 20.671875 18.058594 20.308594 18.390625 19.980469 Z M 5.640625 19.03125 L 5.640625 17.976562 L 2.152344 17.976562 L 2.152344 19.03125 Z M 11.621094 4.8125 C 11.621094 4.582031 11.621094 4.371094 11.621094 4.371094 L 10.546875 4.371094 L 10.546875 4.8125 C 10.71875 4.785156 10.898438 4.769531 11.082031 4.769531 C 11.265625 4.769531 11.445312 4.785156 11.621094 4.8125 Z M 19.867188 16.035156 L 20.917969 18.359375 C 21 18.539062 20.960938 18.75 20.820312 18.890625 L 15.089844 24.625 C 14.492188 25.21875 14.492188 26.195312 15.089844 26.792969 C 15.6875 27.390625 16.664062 27.390625 17.261719 26.792969 L 27.816406 16.238281 C 25.632812 14.050781 23.960938 12.382812 21.777344 10.199219 L 20.71875 11.257812 L 23.335938 13.875 C 23.425781 13.964844 23.472656 14.085938 23.472656 14.210938 C 23.472656 14.335938 23.425781 14.457031 23.335938 14.546875 L 21.75 16.128906 C 21.566406 16.316406 21.265625 16.316406 21.082031 16.128906 L 20.425781 15.476562 Z M 22.828125 9.90625 C 23.140625 10.21875 23.445312 10.523438 23.742188 10.820312 L 25.867188 8.691406 C 26.34375 8.214844 27.117188 8.214844 27.59375 8.691406 L 31.480469 12.574219 L 31.847656 12.207031 C 32.144531 11.90625 32.144531 11.417969 31.847656 11.121094 L 27.273438 6.546875 C 26.976562 6.25 26.488281 6.25 26.1875 6.546875 Z M 25.820312 12.898438 C 26.667969 13.746094 27.527344 14.605469 28.488281 15.566406 L 29.398438 14.652344 L 26.730469 11.984375 Z M 25.417969 19.980469 L 24.363281 21.035156 L 32.492188 21.035156 C 32.496094 21.035156 32.5 21.03125 32.5 21.027344 L 32.5 19.984375 C 32.5 19.980469 32.496094 19.980469 32.492188 19.980469 Z M 23.414062 21.984375 L 17.929688 27.464844 C 16.964844 28.429688 15.382812 28.429688 14.417969 27.464844 C 13.453125 26.5 13.453125 24.917969 14.417969 23.953125 C 14.417969 23.953125 15.316406 23.054688 16.386719 21.984375 L 2.152344 21.984375 L 2.152344 27.914062 C 2.152344 29.289062 3.273438 30.40625 4.644531 30.40625 L 28.808594 30.40625 C 30.179688 30.40625 31.300781 29.289062 31.300781 27.914062 L 31.300781 21.984375 Z M 18.84375 13.890625 L 16.269531 16.464844 C 16.019531 16.71875 16.019531 17.128906 16.269531 17.378906 C 16.519531 17.628906 16.929688 17.628906 17.179688 17.378906 L 19.753906 14.804688 Z M 20 11.882812 C 19.707031 11.589844 19.507812 11.390625 19.507812 11.390625 L 18.59375 12.300781 C 18.59375 12.300781 21.417969 15.121094 21.417969 15.121094 C 21.417969 15.121094 22.328125 14.210938 22.328125 14.210938 C 22.328125 14.210938 22.128906 14.011719 21.835938 13.71875 L 21.378906 14.171875 C 21.195312 14.359375 20.894531 14.359375 20.707031 14.171875 C 20.523438 13.988281 20.523438 13.6875 20.707031 13.503906 L 21.164062 13.046875 C 21 12.882812 20.832031 12.714844 20.671875 12.554688 L 20.214844 13.007812 C 20.03125 13.195312 19.730469 13.195312 19.542969 13.007812 C 19.359375 12.824219 19.359375 12.523438 19.542969 12.339844 Z M 28.078125 31.355469 L 27.03125 31.355469 L 27.03125 32.03125 C 27.03125 32.316406 27.269531 32.550781 27.554688 32.550781 C 27.839844 32.550781 28.078125 32.316406 28.078125 32.03125 Z M 6.324219 31.355469 L 5.28125 31.355469 L 5.28125 32.03125 C 5.28125 32.316406 5.515625 32.550781 5.800781 32.550781 C 6.089844 32.550781 6.324219 32.316406 6.324219 32.03125 Z M 11.082031 5.71875 C 10.785156 5.71875 10.5 5.773438 10.234375 5.871094 C 9.4375 6.164062 8.832031 6.855469 8.667969 7.707031 C 8.667969 7.707031 13.5 7.707031 13.5 7.707031 C 13.332031 6.855469 12.730469 6.164062 11.929688 5.871094 C 11.667969 5.773438 11.382812 5.71875 11.082031 5.71875 Z M 26.394531 15.488281 C 26.839844 15.933594 26.839844 16.664062 26.394531 17.109375 L 18.945312 24.558594 C 18.5 25.003906 17.769531 25.003906 17.324219 24.558594 C 16.878906 24.113281 16.878906 23.386719 17.324219 22.941406 L 24.777344 15.488281 C 25.222656 15.042969 25.949219 15.042969 26.394531 15.488281 Z M 25.722656 16.160156 C 25.648438 16.085938 25.523438 16.085938 25.445312 16.160156 L 17.996094 23.609375 C 17.921875 23.6875 17.921875 23.8125 17.996094 23.886719 C 18.074219 23.960938 18.195312 23.964844 18.273438 23.886719 L 25.722656 16.4375 C 25.800781 16.359375 25.800781 16.234375 25.722656 16.160156 Z M 17.011719 24.871094 C 17.445312 25.308594 17.445312 26.011719 17.011719 26.449219 C 16.578125 26.882812 15.871094 26.882812 15.433594 26.449219 C 15 26.011719 15 25.308594 15.433594 24.871094 C 15.871094 24.4375 16.578125 24.4375 17.011719 24.871094 Z M 16.339844 25.542969 C 16.277344 25.480469 16.171875 25.480469 16.105469 25.542969 C 16.042969 25.609375 16.042969 25.710938 16.105469 25.777344 C 16.171875 25.839844 16.277344 25.839844 16.339844 25.777344 C 16.40625 25.710938 16.40625 25.609375 16.339844 25.542969 Z M 10.609375 9.824219 C 10.609375 9.5625 10.820312 9.347656 11.082031 9.347656 C 11.34375 9.347656 11.558594 9.5625 11.558594 9.824219 L 11.558594 10.898438 C 11.558594 11.160156 11.34375 11.371094 11.082031 11.371094 C 10.820312 11.371094 10.609375 11.160156 10.609375 10.898438 Z M 12.734375 9.824219 C 12.734375 9.5625 12.949219 9.347656 13.210938 9.347656 C 13.472656 9.347656 13.683594 9.5625 13.683594 9.824219 L 13.683594 10.898438 C 13.683594 11.160156 13.472656 11.371094 13.210938 11.371094 C 12.949219 11.371094 12.734375 11.160156 12.734375 10.898438 Z M 12.734375 15.179688 C 12.734375 14.917969 12.949219 14.703125 13.210938 14.703125 C 13.472656 14.703125 13.683594 14.917969 13.683594 15.179688 L 13.683594 16.253906 C 13.683594 16.515625 13.472656 16.726562 13.210938 16.726562 C 12.949219 16.726562 12.734375 16.515625 12.734375 16.253906 Z M 12.734375 12.5 C 12.734375 12.238281 12.949219 12.027344 13.210938 12.027344 C 13.472656 12.027344 13.683594 12.238281 13.683594 12.5 L 13.683594 13.574219 C 13.683594 13.835938 13.472656 14.050781 13.210938 14.050781 C 12.949219 14.050781 12.734375 13.835938 12.734375 13.574219 Z M 8.480469 9.824219 C 8.480469 9.5625 8.691406 9.347656 8.957031 9.347656 C 9.21875 9.347656 9.429688 9.5625 9.429688 9.824219 L 9.429688 10.898438 C 9.429688 11.160156 9.21875 11.371094 8.957031 11.371094 C 8.691406 11.371094 8.480469 11.160156 8.480469 10.898438 Z M 8.480469 15.179688 C 8.480469 14.917969 8.691406 14.703125 8.957031 14.703125 C 9.21875 14.703125 9.429688 14.917969 9.429688 15.179688 L 9.429688 16.253906 C 9.429688 16.515625 9.21875 16.726562 8.957031 16.726562 C 8.691406 16.726562 8.480469 16.515625 8.480469 16.253906 Z M 8.480469 12.5 C 8.480469 12.238281 8.691406 12.027344 8.957031 12.027344 C 9.21875 12.027344 9.429688 12.238281 9.429688 12.5 L 9.429688 13.574219 C 9.429688 13.835938 9.21875 14.050781 8.957031 14.050781 C 8.691406 14.050781 8.480469 13.835938 8.480469 13.574219 Z M 10.609375 15.179688 C 10.609375 14.917969 10.820312 14.703125 11.082031 14.703125 C 11.34375 14.703125 11.558594 14.917969 11.558594 15.179688 L 11.558594 16.253906 C 11.558594 16.515625 11.34375 16.726562 11.082031 16.726562 C 10.820312 16.726562 10.609375 16.515625 10.609375 16.253906 Z M 10.609375 12.5 C 10.609375 12.238281 10.820312 12.027344 11.082031 12.027344 C 11.34375 12.027344 11.558594 12.238281 11.558594 12.5 L 11.558594 13.574219 C 11.558594 13.835938 11.34375 14.050781 11.082031 14.050781 C 10.820312 14.050781 10.609375 13.835938 10.609375 13.574219 Z M 10.609375 12.5 " fill-opacity="1" fill-rule="evenodd"/></g></svg>