<svg xmlns="http://www.w3.org/2000/svg" xmlns:xlink="http://www.w3.org/1999/xlink" width="45" zoomAndPan="magnify" viewBox="0 0 33.75 33.749998" height="45" preserveAspectRatio="xMidYMid meet" version="1.0"><defs><clipPath id="f556d869fd"><path d="M 17 17 L 33.5 17 L 33.5 33.5 L 17 33.5 Z M 17 17 " clip-rule="nonzero"/></clipPath></defs><path fill="#ffffff" d="M 4.792969 23.976562 L 23.421875 5.34375 L 27.453125 9.371094 L 8.824219 28.003906 Z M 4.792969 23.976562 " fill-opacity="1" fill-rule="nonzero"/><path fill="#ffffff" d="M 2.5625 28.269531 L 4.558594 30.261719 L 7.832031 29.015625 L 3.808594 24.992188 Z M 2.5625 28.269531 " fill-opacity="1" fill-rule="nonzero"/><path fill="#ffffff" d="M 1.28125 31.542969 L 3.3125 31.007812 L 1.78125 29.515625 Z M 1.28125 31.542969 " fill-opacity="1" fill-rule="nonzero"/><path fill="#ffffff" d="M 25.449219 3.3125 L 29.480469 7.34375 L 28.472656 8.347656 L 24.445312 4.320312 Z M 25.449219 3.3125 " fill-opacity="1" fill-rule="nonzero"/><path fill="#ffffff" d="M 32.007812 4.84375 C 32.824219 4.023438 32.824219 2.671875 32.007812 1.816406 L 31.007812 0.820312 C 30.191406 0 28.839844 0 27.984375 0.820312 L 26.453125 2.3125 L 30.476562 6.335938 Z M 32.007812 4.84375 " fill-opacity="1" fill-rule="nonzero"/><path fill="#ffffff" d="M 4.199219 8.257812 L 11.355469 15.414062 L 15.378906 11.394531 L 8.222656 4.238281 C 8.1875 3.277344 7.832031 2.3125 7.085938 1.601562 C 5.554688 0.0703125 3.0625 0.0703125 1.53125 1.601562 C 0 3.132812 0 5.625 1.53125 7.15625 C 2.277344 7.832031 3.238281 8.222656 4.199219 8.257812 Z M 2.5625 2.5625 C 3.523438 1.601562 5.125 1.601562 6.089844 2.5625 C 7.050781 3.523438 7.050781 5.125 6.089844 6.089844 C 5.125 7.050781 3.523438 7.050781 2.5625 6.089844 C 1.566406 5.125 1.566406 3.558594 2.5625 2.5625 Z M 2.5625 2.5625 " fill-opacity="1" fill-rule="nonzero"/><g clip-path="url(#f556d869fd)"><path fill="#ffffff" d="M 31.757812 24.496094 C 30.476562 23.210938 28.730469 22.75 27.09375 23.070312 L 21.433594 17.445312 L 17.410156 21.46875 L 23.035156 27.09375 C 22.714844 28.730469 23.175781 30.511719 24.457031 31.757812 C 25.742188 33.039062 27.484375 33.5 29.121094 33.179688 L 25.953125 30.011719 L 26.417969 28.054688 L 26.703125 26.738281 L 28.019531 26.453125 L 29.976562 25.988281 L 33.144531 29.160156 C 33.5 27.519531 33.003906 25.742188 31.757812 24.496094 Z M 31.757812 24.496094 " fill-opacity="1" fill-rule="nonzero"/></g></svg>