<svg xmlns="http://www.w3.org/2000/svg" xmlns:xlink="http://www.w3.org/1999/xlink" width="45" zoomAndPan="magnify" viewBox="0 0 33.75 33.749998" height="45" preserveAspectRatio="xMidYMid meet" version="1.0"><defs><clipPath id="09bc898d91"><path d="M 0 0 L 33.5 0 L 33.5 33.5 L 0 33.5 Z M 0 0 " clip-rule="nonzero"/></clipPath></defs><g clip-path="url(#09bc898d91)"><path fill="#ffffff" d="M 21.902344 7.191406 C 21.902344 7.191406 21.195312 7.191406 21.195312 7.191406 C 20.699219 7.191406 20.699219 6.445312 21.195312 6.445312 L 21.902344 6.445312 C 22.394531 6.445312 22.394531 7.191406 21.902344 7.191406 Z M 16.378906 13.261719 L 16.378906 0.375 C 16.378906 0.167969 16.542969 0 16.75 0 L 31.527344 0 C 31.734375 0 31.902344 0.167969 31.902344 0.375 L 31.902344 13.261719 C 31.902344 13.46875 31.734375 13.636719 31.527344 13.636719 L 16.75 13.636719 C 16.542969 13.636719 16.378906 13.46875 16.378906 13.261719 Z M 24.515625 12.886719 L 31.152344 12.886719 L 31.152344 0.746094 L 24.515625 0.746094 Z M 17.125 12.886719 L 23.761719 12.886719 L 23.761719 0.746094 L 17.125 0.746094 Z M 33.5 16.238281 L 33.5 18.097656 C 33.5 18.304688 33.335938 18.472656 33.128906 18.472656 L 31.902344 18.472656 L 31.902344 33.769531 C 31.902344 33.976562 31.734375 34.140625 31.527344 34.140625 L 1.976562 34.140625 C 1.769531 34.140625 1.601562 33.976562 1.601562 33.769531 L 1.601562 18.472656 L 0.375 18.472656 C 0.167969 18.472656 0 18.304688 0 18.097656 L 0 16.238281 C 0 16.03125 0.167969 15.863281 0.375 15.863281 L 3.628906 15.863281 L 3.628906 15.351562 L 3.101562 14.488281 C 2.996094 14.308594 3.050781 14.082031 3.230469 13.976562 C 3.402344 13.867188 3.636719 13.921875 3.742188 14.101562 L 4.214844 14.875 L 5.144531 14.875 L 5.144531 14.277344 C 5.144531 14.070312 5.308594 13.902344 5.515625 13.902344 C 5.722656 13.902344 5.890625 14.070312 5.890625 14.277344 L 5.890625 14.875 L 6.804688 14.875 C 6.804688 14.875 7.292969 14.082031 7.292969 14.082031 C 7.546875 13.660156 8.183594 14.054688 7.933594 14.476562 L 7.363281 15.402344 L 7.363281 15.875 L 10.699219 15.875 L 10.699219 15.363281 L 10.171875 14.503906 C 10.066406 14.324219 10.121094 14.09375 10.300781 13.988281 C 10.472656 13.882812 10.707031 13.933594 10.8125 14.117188 L 11.289062 14.890625 L 12.214844 14.890625 L 12.214844 14.289062 C 12.214844 14.082031 12.382812 13.914062 12.589844 13.914062 C 12.796875 13.914062 12.960938 14.082031 12.960938 14.289062 L 12.960938 14.890625 L 13.875 14.890625 C 13.875 14.890625 14.363281 14.09375 14.363281 14.09375 C 14.621094 13.675781 15.257812 14.070312 15.003906 14.488281 L 14.4375 15.417969 L 14.4375 15.890625 L 33.121094 15.890625 C 33.335938 15.863281 33.5 16.03125 33.5 16.238281 Z M 11.453125 15.863281 L 13.6875 15.863281 L 13.6875 15.617188 L 11.453125 15.617188 Z M 4.382812 15.863281 L 6.617188 15.863281 L 6.617188 15.617188 L 4.382812 15.617188 Z M 16.378906 18.472656 L 2.355469 18.472656 L 2.355469 33.394531 L 16.378906 33.394531 Z M 31.148438 26.308594 L 17.125 26.308594 L 17.125 33.394531 L 31.148438 33.394531 Z M 31.148438 18.472656 L 17.125 18.472656 L 17.125 25.554688 L 31.148438 25.554688 Z M 32.746094 16.609375 L 0.753906 16.609375 L 0.753906 17.71875 L 32.753906 17.71875 L 32.753906 16.609375 Z M 3.476562 31.894531 L 3.476562 23.613281 C 3.476562 23.40625 3.644531 23.242188 3.847656 23.242188 L 14.871094 23.242188 C 15.078125 23.242188 15.242188 23.40625 15.242188 23.613281 L 15.242188 31.894531 C 15.242188 32.101562 15.078125 32.265625 14.871094 32.265625 L 3.855469 32.265625 C 3.644531 32.265625 3.476562 32.101562 3.476562 31.894531 Z M 4.230469 31.511719 L 14.503906 31.511719 L 14.503906 23.988281 L 4.230469 23.988281 Z M 6.957031 21.226562 L 6.957031 20.433594 C 6.957031 19.972656 7.332031 19.59375 7.796875 19.59375 L 8.59375 19.59375 C 9.050781 19.59375 9.433594 19.964844 9.433594 20.433594 L 9.433594 21.226562 C 9.433594 21.6875 9.058594 22.066406 8.59375 22.066406 L 7.796875 22.066406 C 7.332031 22.066406 6.957031 21.6875 6.957031 21.226562 Z M 7.707031 21.226562 C 7.707031 21.273438 7.746094 21.3125 7.792969 21.3125 L 8.585938 21.3125 C 8.632812 21.3125 8.671875 21.273438 8.671875 21.226562 L 8.671875 20.433594 C 8.671875 20.386719 8.632812 20.347656 8.585938 20.347656 L 7.792969 20.347656 C 7.746094 20.347656 7.707031 20.386719 7.707031 20.433594 Z M 27.152344 6.445312 C 27.152344 6.445312 26.445312 6.445312 26.445312 6.445312 C 25.949219 6.445312 25.949219 7.191406 26.445312 7.191406 L 27.152344 7.191406 C 27.636719 7.191406 27.636719 6.445312 27.152344 6.445312 Z M 10.433594 21.226562 L 10.433594 20.433594 C 10.433594 19.972656 10.808594 19.59375 11.273438 19.59375 L 12.066406 19.59375 C 12.527344 19.59375 12.910156 19.964844 12.910156 20.433594 L 12.910156 21.226562 C 12.910156 21.6875 12.535156 22.066406 12.066406 22.066406 L 11.273438 22.066406 C 10.8125 22.066406 10.433594 21.6875 10.433594 21.226562 Z M 11.1875 21.226562 C 11.1875 21.273438 11.226562 21.3125 11.273438 21.3125 L 12.066406 21.3125 C 12.113281 21.3125 12.15625 21.273438 12.15625 21.226562 L 12.15625 20.433594 C 12.15625 20.386719 12.113281 20.347656 12.066406 20.347656 L 11.273438 20.347656 C 11.226562 20.347656 11.1875 20.386719 11.1875 20.433594 Z M 22.722656 30.226562 L 23.761719 30.226562 L 23.761719 30.652344 C 23.761719 30.859375 23.929688 31.027344 24.136719 31.027344 C 24.34375 31.027344 24.507812 30.859375 24.507812 30.652344 L 24.507812 30.226562 L 25.625 30.226562 C 26.109375 30.226562 26.117188 29.480469 25.625 29.480469 C 25.625 29.480469 22.714844 29.480469 22.714844 29.480469 C 22.226562 29.480469 22.226562 30.226562 22.722656 30.226562 Z M 4.496094 9.667969 L 4.496094 8.164062 C 4.511719 8.046875 4.5625 7.917969 4.671875 7.859375 L 7.785156 4.75 L 7.785156 0.742188 C 7.785156 0.535156 7.953125 0.367188 8.160156 0.367188 L 10.554688 0.367188 C 10.761719 0.367188 10.925781 0.535156 10.925781 0.742188 L 10.925781 4.75 L 14.042969 7.859375 C 14.148438 7.925781 14.203125 8.046875 14.214844 8.164062 L 14.214844 9.667969 C 14.214844 9.871094 14.050781 10.039062 13.84375 10.039062 L 4.871094 10.039062 C 4.664062 10.039062 4.496094 9.871094 4.496094 9.667969 Z M 8.539062 4.53125 L 10.179688 4.53125 L 10.179688 1.113281 L 8.539062 1.113281 Z M 5.804688 7.785156 L 12.929688 7.785156 L 10.40625 5.277344 L 8.324219 5.277344 Z M 5.25 9.292969 L 13.480469 9.292969 L 13.480469 8.558594 L 5.25 8.558594 Z M 3.476562 21.226562 L 3.476562 20.433594 C 3.476562 19.972656 3.847656 19.59375 4.316406 19.59375 L 5.109375 19.59375 C 5.570312 19.59375 5.949219 19.964844 5.949219 20.433594 L 5.949219 21.226562 C 5.949219 21.6875 5.578125 22.066406 5.109375 22.066406 L 4.316406 22.066406 C 3.855469 22.066406 3.476562 21.6875 3.476562 21.226562 Z M 4.230469 21.226562 C 4.230469 21.273438 4.269531 21.3125 4.316406 21.3125 L 5.109375 21.3125 C 5.15625 21.3125 5.195312 21.273438 5.195312 21.226562 L 5.195312 20.433594 C 5.195312 20.386719 5.15625 20.347656 5.109375 20.347656 L 4.316406 20.347656 C 4.269531 20.347656 4.230469 20.386719 4.230469 20.433594 Z M 22.722656 22.386719 L 23.761719 22.386719 L 23.761719 22.8125 C 23.761719 23.019531 23.929688 23.1875 24.136719 23.1875 C 24.34375 23.1875 24.507812 23.019531 24.507812 22.8125 L 24.507812 22.386719 L 25.625 22.386719 C 26.109375 22.386719 26.117188 21.640625 25.625 21.640625 C 25.625 21.640625 22.714844 21.640625 22.714844 21.640625 C 22.226562 21.640625 22.226562 22.386719 22.722656 22.386719 Z M 22.722656 22.386719 " fill-opacity="1" fill-rule="nonzero"/></g></svg>