<svg xmlns="http://www.w3.org/2000/svg" xmlns:xlink="http://www.w3.org/1999/xlink" width="45" zoomAndPan="magnify" viewBox="0 0 33.75 33.749998" height="45" preserveAspectRatio="xMidYMid meet" version="1.0"><defs><clipPath id="28983c2d7b"><path d="M 23 11 L 33.5 11 L 33.5 22 L 23 22 Z M 23 11 " clip-rule="nonzero"/></clipPath><clipPath id="782f36b2b0"><path d="M 13 0.566406 L 30 0.566406 L 30 12 L 13 12 Z M 13 0.566406 " clip-rule="nonzero"/></clipPath><clipPath id="49d9dac9d2"><path d="M 18 18 L 33 18 L 33 32.578125 L 18 32.578125 Z M 18 18 " clip-rule="nonzero"/></clipPath></defs><path fill="#ffffff" d="M 15.695312 22.085938 L 8.773438 22.140625 C 8.617188 22.140625 8.476562 22.222656 8.402344 22.363281 C 7.949219 23.179688 7.53125 23.976562 7.136719 24.75 C 6.238281 26.535156 6.148438 29.105469 8.402344 29.917969 C 8.886719 30.09375 9.449219 30.101562 9.972656 30.101562 C 11.242188 30.101562 12.980469 30.085938 15.203125 30.058594 C 15.367188 30.058594 15.554688 30.125 15.703125 30.101562 C 15.761719 30.09375 15.792969 30.058594 15.792969 29.992188 L 15.800781 22.191406 C 15.800781 22.132812 15.746094 22.082031 15.695312 22.085938 Z M 15.695312 22.085938 " fill-opacity="1" fill-rule="nonzero"/><path fill="#ffffff" d="M 14.757812 2.566406 C 13.859375 1.332031 12.222656 0.878906 10.816406 1.503906 C 10.230469 1.761719 9.785156 2.125 9.472656 2.59375 C 8.5 4.058594 7.5625 5.628906 6.65625 7.292969 C 6.433594 7.695312 6.207031 8.066406 5.976562 8.394531 C 5.910156 8.484375 5.933594 8.558594 6.023438 8.609375 L 12.3125 12.148438 C 12.378906 12.183594 12.460938 12.164062 12.5 12.101562 L 16.550781 6.058594 C 16.578125 6.015625 16.585938 5.957031 16.566406 5.902344 C 16.105469 4.796875 15.488281 3.5625 14.757812 2.566406 Z M 14.757812 2.566406 " fill-opacity="1" fill-rule="nonzero"/><path fill="#ffffff" d="M 6.707031 23.640625 C 7.570312 22.042969 8.402344 20.503906 9.199219 19.039062 C 9.382812 18.707031 9.589844 18.371094 9.820312 18.050781 C 9.859375 18 9.933594 17.992188 9.984375 18.027344 C 10.683594 18.5625 11.457031 19.023438 12.3125 19.390625 C 12.34375 19.402344 12.378906 19.390625 12.394531 19.359375 C 12.410156 19.324219 12.410156 19.285156 12.378906 19.246094 C 12.363281 19.234375 12.351562 19.21875 12.34375 19.195312 C 11.085938 16.875 9.761719 14.625 8.371094 12.445312 C 8.328125 12.378906 8.253906 12.332031 8.171875 12.339844 C 5.59375 12.378906 2.921875 12.386719 0.15625 12.347656 C 0.0742188 12.347656 0.015625 12.410156 0.0078125 12.488281 C 0 12.570312 0.0390625 12.640625 0.113281 12.683594 C 0.96875 13.167969 1.859375 13.613281 2.804688 14.007812 C 2.878906 14.035156 2.886719 14.082031 2.847656 14.148438 C 2.222656 15.046875 1.644531 15.96875 1.101562 16.921875 C 0.359375 18.222656 0.367188 19.492188 1.132812 20.757812 C 2.542969 23.078125 3.941406 25.464844 5.449219 27.773438 C 5.761719 28.25 5.875 28.207031 5.800781 27.640625 C 5.605469 26.199219 6.023438 24.921875 6.707031 23.640625 Z M 6.707031 23.640625 " fill-opacity="1" fill-rule="nonzero"/><g clip-path="url(#28983c2d7b)"><path fill="#ffffff" d="M 32.503906 16.355469 C 31.753906 15.128906 31.039062 13.925781 30.363281 12.734375 C 30.148438 12.363281 29.894531 11.96875 29.605469 11.566406 C 29.566406 11.507812 29.515625 11.5 29.449219 11.53125 L 23.175781 14.800781 C 23.046875 14.867188 23.003906 15.023438 23.078125 15.152344 L 26.890625 21.457031 C 26.929688 21.515625 26.988281 21.546875 27.054688 21.546875 C 27.992188 21.558594 28.890625 21.558594 29.761719 21.546875 C 31.21875 21.523438 32.765625 20.773438 33.179688 19.308594 C 33.5 18.175781 33.097656 17.324219 32.503906 16.355469 Z M 32.503906 16.355469 " fill-opacity="1" fill-rule="nonzero"/></g><g clip-path="url(#782f36b2b0)"><path fill="#ffffff" d="M 25.003906 11.332031 C 25.070312 11.351562 25.113281 11.335938 25.152344 11.277344 C 25.269531 11.085938 25.375 10.914062 25.464844 10.765625 C 26.5625 8.871094 27.777344 6.675781 29.09375 4.199219 C 29.160156 4.074219 29.121094 4.015625 28.972656 4.015625 C 28.941406 4.015625 28.914062 4.023438 28.882812 4.039062 C 28.082031 4.453125 27.328125 4.855469 26.636719 5.25 C 26.550781 5.300781 26.429688 5.265625 26.386719 5.167969 C 25.960938 4.191406 25.472656 3.265625 24.921875 2.371094 C 24.476562 1.65625 23.886719 1.160156 23.144531 0.871094 C 22.742188 0.714844 22.015625 0.632812 20.953125 0.625 C 18.585938 0.609375 16.3125 0.609375 14.140625 0.632812 C 14.007812 0.632812 13.761719 0.609375 13.414062 0.566406 C 13.398438 0.566406 13.382812 0.574219 13.382812 0.582031 C 13.382812 0.585938 13.375 0.59375 13.375 0.59375 C 13.375 0.609375 13.382812 0.625 13.398438 0.632812 C 14.699219 1.160156 15.679688 2.097656 16.335938 3.425781 C 17.257812 5.316406 18.28125 7.203125 19.414062 9.085938 C 19.523438 9.269531 19.488281 9.417969 19.300781 9.523438 C 18.660156 9.894531 18.015625 10.28125 17.367188 10.699219 C 17.308594 10.734375 17.242188 10.765625 17.160156 10.789062 C 17.054688 10.816406 16.980469 10.847656 16.953125 10.875 C 16.75 11.0625 16.789062 11.160156 17.0625 11.167969 C 19.523438 11.1875 21.960938 11.195312 24.371094 11.195312 C 24.5625 11.203125 24.773438 11.25 25.003906 11.332031 Z M 25.003906 11.332031 " fill-opacity="1" fill-rule="nonzero"/></g><g clip-path="url(#49d9dac9d2)"><path fill="#ffffff" d="M 32.5625 21.472656 C 31.859375 22.183594 30.660156 22.242188 29.730469 22.230469 C 27.539062 22.175781 25.085938 22.148438 22.363281 22.125 C 22.253906 22.125 22.15625 22.027344 22.15625 21.917969 C 22.171875 20.933594 22.148438 20.027344 22.074219 19.203125 C 22.035156 18.742188 21.902344 18.710938 21.679688 19.121094 C 20.460938 21.335938 19.285156 23.632812 18.148438 26.019531 C 18.117188 26.085938 18.117188 26.160156 18.15625 26.230469 C 19.25 28.175781 20.328125 30.117188 21.390625 32.035156 C 21.539062 32.308594 21.722656 32.570312 21.933594 32.824219 C 22.023438 32.925781 22.066406 32.914062 22.074219 32.777344 L 22.214844 30.183594 C 22.222656 30.09375 22.265625 30.058594 22.347656 30.058594 C 23.417969 30.066406 24.46875 30.078125 25.507812 30.101562 C 26.914062 30.132812 27.984375 29.640625 28.660156 28.4375 C 29.960938 26.109375 31.300781 23.851562 32.667969 21.648438 C 32.699219 21.605469 32.699219 21.550781 32.675781 21.5 C 32.660156 21.441406 32.601562 21.433594 32.5625 21.472656 Z M 32.5625 21.472656 " fill-opacity="1" fill-rule="nonzero"/></g></svg>