<svg xmlns="http://www.w3.org/2000/svg" xmlns:xlink="http://www.w3.org/1999/xlink" width="45" zoomAndPan="magnify" viewBox="0 0 33.75 33.749998" height="45" preserveAspectRatio="xMidYMid meet" version="1.0"><defs><clipPath id="924a91dc7f"><path d="M 17 24 L 33 24 L 33 33.5 L 17 33.5 Z M 17 24 " clip-rule="nonzero"/></clipPath><clipPath id="13bc45c661"><path d="M 0 17 L 33.5 17 L 33.5 33.5 L 0 33.5 Z M 0 17 " clip-rule="nonzero"/></clipPath><clipPath id="9788cda1b2"><path d="M 25 0 L 33.5 0 L 33.5 11 L 25 11 Z M 25 0 " clip-rule="nonzero"/></clipPath></defs><path fill="#ffffff" d="M 12.707031 28.304688 L 11.550781 28.304688 L 11.550781 24.835938 L 12.707031 24.835938 Z M 13.863281 21.949219 L 3.464844 21.949219 L 3.464844 31.191406 L 13.863281 31.191406 L 13.863281 21.949219 " fill-opacity="1" fill-rule="nonzero"/><g clip-path="url(#924a91dc7f)"><path fill="#ffffff" d="M 31.191406 32.347656 L 18.484375 32.347656 L 18.484375 24.261719 L 17.328125 24.261719 L 17.328125 33.5 L 32.347656 33.5 L 32.347656 24.261719 L 31.191406 24.261719 L 31.191406 32.347656 " fill-opacity="1" fill-rule="nonzero"/></g><path fill="#ffffff" d="M 1.070312 16.171875 L 32.433594 16.171875 L 30.988281 15.019531 L 2.511719 15.019531 L 1.070312 16.171875 " fill-opacity="1" fill-rule="nonzero"/><g clip-path="url(#13bc45c661)"><path fill="#ffffff" d="M 15.019531 20.792969 L 15.019531 32.347656 L 2.308594 32.347656 L 2.308594 20.792969 Z M 0 18.484375 L 3.464844 18.484375 L 3.464844 19.640625 L 1.15625 19.640625 L 1.15625 33.5 L 16.171875 33.5 L 16.171875 19.640625 L 4.621094 19.640625 L 4.621094 18.484375 L 33.5 18.484375 L 33.5 17.328125 L 0 17.328125 L 0 18.484375 " fill-opacity="1" fill-rule="nonzero"/></g><path fill="#ffffff" d="M 19.640625 24.261719 L 19.640625 31.191406 L 30.035156 31.191406 L 30.035156 24.261719 L 19.640625 24.261719 " fill-opacity="1" fill-rule="nonzero"/><path fill="#ffffff" d="M 27.726562 20.792969 L 28.882812 20.792969 L 28.882812 21.949219 L 27.726562 21.949219 Z M 30.035156 20.792969 L 31.191406 20.792969 L 31.191406 21.949219 L 30.035156 21.949219 Z M 17.328125 23.105469 L 32.347656 23.105469 L 32.347656 19.640625 L 17.328125 19.640625 L 17.328125 23.105469 " fill-opacity="1" fill-rule="nonzero"/><path fill="#ffffff" d="M 19.90625 5.777344 L 13.59375 5.777344 L 12.054688 8.085938 L 21.449219 8.085938 L 19.90625 5.777344 " fill-opacity="1" fill-rule="nonzero"/><path fill="#ffffff" d="M 19.640625 0 L 13.863281 0 L 13.863281 4.621094 L 19.640625 4.621094 L 19.640625 0 " fill-opacity="1" fill-rule="nonzero"/><path fill="#ffffff" d="M 21.949219 9.242188 L 11.550781 9.242188 L 11.550781 10.398438 L 21.949219 10.398438 L 21.949219 9.242188 " fill-opacity="1" fill-rule="nonzero"/><path fill="#ffffff" d="M 6.929688 9.242188 L 1.15625 9.242188 L 1.15625 1.15625 L 6.929688 1.15625 Z M 8.085938 0 L 0 0 L 0 10.398438 L 8.085938 10.398438 L 8.085938 0 " fill-opacity="1" fill-rule="nonzero"/><path fill="#ffffff" d="M 4.621094 6.929688 L 3.464844 6.929688 L 3.464844 5.777344 L 4.621094 5.777344 Z M 5.777344 2.308594 L 2.308594 2.308594 L 2.308594 8.085938 L 5.777344 8.085938 L 5.777344 2.308594 " fill-opacity="1" fill-rule="nonzero"/><path fill="#ffffff" d="M 30.035156 6.929688 L 28.882812 6.929688 L 28.882812 5.777344 L 30.035156 5.777344 Z M 31.191406 2.308594 L 27.726562 2.308594 L 27.726562 8.085938 L 31.191406 8.085938 L 31.191406 2.308594 " fill-opacity="1" fill-rule="nonzero"/><g clip-path="url(#9788cda1b2)"><path fill="#ffffff" d="M 32.347656 9.242188 L 26.570312 9.242188 L 26.570312 1.15625 L 32.347656 1.15625 Z M 25.414062 0 L 25.414062 10.398438 L 33.5 10.398438 L 33.5 0 L 25.414062 0 " fill-opacity="1" fill-rule="nonzero"/></g></svg>