<svg xmlns="http://www.w3.org/2000/svg" xmlns:xlink="http://www.w3.org/1999/xlink" width="45" zoomAndPan="magnify" viewBox="0 0 33.75 33.749998" height="45" preserveAspectRatio="xMidYMid meet" version="1.0"><defs><clipPath id="8744c4dda6"><path d="M 0 0 L 33.5 0 L 33.5 8 L 0 8 Z M 0 0 " clip-rule="nonzero"/></clipPath><clipPath id="5ae1aa116e"><path d="M 5 29 L 11 29 L 11 33.5 L 5 33.5 Z M 5 29 " clip-rule="nonzero"/></clipPath><clipPath id="95bffbb714"><path d="M 22 29 L 28 29 L 28 33.5 L 22 33.5 Z M 22 29 " clip-rule="nonzero"/></clipPath></defs><path fill="#ffffff" d="M 4.925781 21.183594 L 4.925781 22.171875 L 16.75 22.171875 L 16.75 21.183594 Z M 4.925781 23.15625 L 4.925781 24.140625 L 16.75 24.140625 L 16.75 23.15625 Z M 4.925781 23.15625 " fill-opacity="1" fill-rule="nonzero"/><path fill="#ffffff" d="M 10.019531 15.273438 C 10.019531 15.542969 9.796875 15.765625 9.523438 15.765625 L 4.761719 15.765625 L 4.761719 14.78125 L 9.523438 14.78125 C 9.796875 14.78125 10.019531 15 10.019531 15.273438 Z M 10.019531 15.273438 " fill-opacity="1" fill-rule="nonzero"/><path fill="#ffffff" d="M 5.140625 12.808594 L 16.539062 12.808594 L 16.539062 13.792969 L 5.140625 13.792969 Z M 5.140625 12.808594 " fill-opacity="1" fill-rule="nonzero"/><path fill="#ffffff" d="M 13.464844 14.78125 L 16.914062 14.78125 L 16.914062 15.765625 L 13.464844 15.765625 C 13.195312 15.765625 12.972656 15.542969 12.972656 15.273438 C 12.972656 15 13.195312 14.78125 13.464844 14.78125 Z M 13.464844 14.78125 " fill-opacity="1" fill-rule="nonzero"/><path fill="#ffffff" d="M 11.988281 15.273438 C 11.988281 15.410156 11.941406 15.523438 11.84375 15.621094 C 11.746094 15.71875 11.632812 15.765625 11.496094 15.765625 C 11.359375 15.765625 11.242188 15.71875 11.148438 15.621094 C 11.050781 15.523438 11.003906 15.410156 11.003906 15.273438 C 11.003906 15.136719 11.050781 15.019531 11.148438 14.925781 C 11.242188 14.828125 11.359375 14.78125 11.496094 14.78125 C 11.632812 14.78125 11.746094 14.828125 11.84375 14.925781 C 11.941406 15.019531 11.988281 15.136719 11.988281 15.273438 Z M 11.988281 15.273438 " fill-opacity="1" fill-rule="nonzero"/><path fill="#ffffff" d="M 23.648438 6.898438 C 23.648438 7.035156 23.601562 7.148438 23.503906 7.246094 C 23.40625 7.34375 23.292969 7.390625 23.15625 7.390625 C 23.019531 7.390625 22.902344 7.34375 22.808594 7.246094 C 22.710938 7.148438 22.664062 7.035156 22.664062 6.898438 C 22.664062 6.761719 22.710938 6.644531 22.808594 6.550781 C 22.902344 6.453125 23.019531 6.40625 23.15625 6.40625 C 23.292969 6.40625 23.40625 6.453125 23.503906 6.550781 C 23.601562 6.644531 23.648438 6.761719 23.648438 6.898438 Z M 23.648438 6.898438 " fill-opacity="1" fill-rule="nonzero"/><g clip-path="url(#8744c4dda6)"><path fill="#ffffff" d="M 31.039062 7.390625 C 30.765625 7.390625 30.546875 7.167969 30.546875 6.898438 C 30.546875 6.625 30.765625 6.40625 31.039062 6.40625 C 31.851562 6.40625 32.515625 5.742188 32.515625 4.925781 L 32.515625 2.464844 C 32.515625 1.648438 31.851562 0.984375 31.039062 0.984375 L 2.464844 0.984375 C 1.648438 0.984375 0.984375 1.648438 0.984375 2.464844 L 0.984375 4.925781 C 0.984375 5.742188 1.648438 6.40625 2.464844 6.40625 C 2.734375 6.40625 2.957031 6.625 2.957031 6.898438 C 2.957031 7.167969 2.734375 7.390625 2.464844 7.390625 C 1.105469 7.390625 0 6.285156 0 4.925781 L 0 2.464844 C 0 1.105469 1.105469 0 2.464844 0 L 31.039062 0 C 32.398438 0 33.5 1.105469 33.5 2.464844 L 33.5 4.925781 C 33.5 6.285156 32.398438 7.390625 31.039062 7.390625 Z M 31.039062 7.390625 " fill-opacity="1" fill-rule="nonzero"/></g><path fill="#ffffff" d="M 27.097656 30.546875 C 26.824219 30.546875 26.605469 30.324219 26.605469 30.054688 C 26.605469 29.78125 26.824219 29.558594 27.097656 29.558594 C 28.976562 29.558594 30.546875 28.050781 30.546875 26.113281 L 30.546875 7.390625 L 25.125 7.390625 C 24.855469 7.390625 24.632812 7.167969 24.632812 6.898438 C 24.632812 6.625 24.855469 6.40625 25.125 6.40625 L 31.039062 6.40625 C 31.3125 6.40625 31.53125 6.625 31.53125 6.898438 L 31.53125 26.113281 C 31.53125 28.609375 29.507812 30.546875 27.097656 30.546875 Z M 27.097656 30.546875 " fill-opacity="1" fill-rule="nonzero"/><path fill="#ffffff" d="M 6.40625 30.546875 C 3.992188 30.546875 1.96875 28.609375 1.96875 26.113281 L 1.96875 6.898438 C 1.96875 6.625 2.191406 6.40625 2.464844 6.40625 L 21.183594 6.40625 C 21.457031 6.40625 21.675781 6.625 21.675781 6.898438 C 21.675781 7.167969 21.457031 7.390625 21.183594 7.390625 L 2.957031 7.390625 L 2.957031 26.113281 C 2.957031 28.050781 4.527344 29.558594 6.40625 29.558594 C 6.675781 29.558594 6.898438 29.78125 6.898438 30.054688 C 6.898438 30.324219 6.675781 30.546875 6.40625 30.546875 Z M 6.40625 30.546875 " fill-opacity="1" fill-rule="nonzero"/><path fill="#ffffff" d="M 23.15625 30.546875 L 10.347656 30.546875 C 10.074219 30.546875 9.851562 30.324219 9.851562 30.054688 C 9.851562 29.78125 10.074219 29.558594 10.347656 29.558594 L 23.15625 29.558594 C 23.429688 29.558594 23.648438 29.78125 23.648438 30.054688 C 23.648438 30.324219 23.429688 30.546875 23.15625 30.546875 Z M 23.15625 30.546875 " fill-opacity="1" fill-rule="nonzero"/><g clip-path="url(#5ae1aa116e)"><path fill="#ffffff" d="M 7.6875 33.5 C 6.707031 33.5 5.910156 32.703125 5.910156 31.726562 L 5.910156 30.054688 C 5.910156 29.78125 6.132812 29.558594 6.40625 29.558594 L 10.347656 29.558594 C 10.527344 29.558594 10.695312 29.660156 10.78125 29.820312 C 10.867188 29.980469 10.855469 30.175781 10.757812 30.328125 L 9.167969 32.710938 C 8.835938 33.207031 8.285156 33.5 7.6875 33.5 Z M 6.898438 30.546875 L 6.898438 31.726562 C 6.898438 32.160156 7.253906 32.515625 7.6875 32.515625 C 7.953125 32.515625 8.199219 32.386719 8.347656 32.164062 L 9.425781 30.546875 Z M 6.898438 30.546875 " fill-opacity="1" fill-rule="nonzero"/></g><g clip-path="url(#95bffbb714)"><path fill="#ffffff" d="M 25.8125 33.5 C 25.21875 33.5 24.664062 33.207031 24.335938 32.710938 L 22.746094 30.328125 C 22.644531 30.175781 22.636719 29.980469 22.722656 29.820312 C 22.808594 29.660156 22.972656 29.558594 23.15625 29.558594 L 27.097656 29.558594 C 27.371094 29.558594 27.589844 29.78125 27.589844 30.054688 L 27.589844 31.726562 C 27.589844 32.703125 26.792969 33.5 25.8125 33.5 Z M 24.078125 30.546875 L 25.15625 32.164062 C 25.300781 32.386719 25.546875 32.515625 25.8125 32.515625 C 26.25 32.515625 26.605469 32.160156 26.605469 31.726562 L 26.605469 30.546875 Z M 24.078125 30.546875 " fill-opacity="1" fill-rule="nonzero"/></g><path fill="#ffffff" d="M 16.75 6.40625 C 16.480469 6.40625 16.257812 6.625 16.257812 6.898438 C 16.257812 9.308594 16.257812 26.777344 16.257812 30.054688 C 16.257812 30.324219 16.480469 30.546875 16.75 30.546875 C 17.023438 30.546875 17.242188 30.324219 17.242188 30.054688 C 17.242188 26.078125 17.242188 9.410156 17.242188 6.898438 C 17.242188 6.625 17.023438 6.40625 16.75 6.40625 Z M 16.75 6.40625 " fill-opacity="1" fill-rule="nonzero"/><path fill="#ffffff" d="M 19.953125 21.675781 C 19.003906 21.675781 18.230469 20.902344 18.230469 19.953125 L 18.230469 16.503906 C 18.230469 15.554688 19.003906 14.78125 19.953125 14.78125 C 20.226562 14.78125 20.445312 15 20.445312 15.273438 C 20.445312 15.546875 20.226562 15.765625 19.953125 15.765625 C 19.546875 15.765625 19.214844 16.097656 19.214844 16.503906 L 19.214844 19.953125 C 19.214844 20.359375 19.546875 20.691406 19.953125 20.691406 C 20.226562 20.691406 20.445312 20.914062 20.445312 21.183594 C 20.445312 21.457031 20.226562 21.675781 19.953125 21.675781 Z M 19.953125 21.675781 " fill-opacity="1" fill-rule="nonzero"/><path fill="#ffffff" d="M 28.574219 30.257812 C 28.304688 30.257812 28.082031 30.039062 28.082031 29.765625 L 28.082031 6.898438 C 28.082031 6.625 28.304688 6.40625 28.574219 6.40625 C 28.847656 6.40625 29.066406 6.625 29.066406 6.898438 L 29.066406 29.765625 C 29.066406 30.039062 28.847656 30.257812 28.574219 30.257812 Z M 28.574219 30.257812 " fill-opacity="1" fill-rule="nonzero"/><path fill="#ffffff" d="M 4.925781 6.40625 C 4.65625 6.40625 4.433594 6.625 4.433594 6.898438 C 4.433594 14.113281 4.433594 22.921875 4.433594 29.765625 C 4.433594 30.039062 4.65625 30.257812 4.925781 30.257812 C 5.199219 30.257812 5.417969 30.039062 5.417969 29.765625 C 5.417969 27.019531 5.417969 9.621094 5.417969 6.898438 C 5.417969 6.625 5.199219 6.40625 4.925781 6.40625 Z M 4.925781 6.40625 " fill-opacity="1" fill-rule="nonzero"/></svg>