<svg xmlns="http://www.w3.org/2000/svg" xmlns:xlink="http://www.w3.org/1999/xlink" width="45" zoomAndPan="magnify" viewBox="0 0 33.75 33.749998" height="45" preserveAspectRatio="xMidYMid meet" version="1.0"><defs><clipPath id="96ab856088"><path d="M 0 0 L 33.5 0 L 33.5 33.5 L 0 33.5 Z M 0 0 " clip-rule="nonzero"/></clipPath></defs><g clip-path="url(#96ab856088)"><path fill="#ffffff" d="M 3.539062 5.78125 L 4.605469 4.46875 C 4.675781 4.386719 4.699219 4.289062 4.679688 4.183594 L 3.929688 0.28125 C 3.898438 0.117188 3.753906 0 3.585938 0 L 1.460938 0 C 1.292969 0 1.152344 0.117188 1.121094 0.28125 L 0.371094 4.183594 C 0.351562 4.289062 0.375 4.386719 0.441406 4.46875 L 1.511719 5.78125 C 1.5625 5.847656 1.589844 5.917969 1.589844 6.003906 L 1.589844 16.371094 L 3.460938 16.371094 L 3.460938 6.003906 C 3.460938 5.917969 3.484375 5.847656 3.539062 5.78125 Z M 11.792969 5.980469 L 9.597656 4.105469 C 9.519531 4.039062 9.476562 3.945312 9.476562 3.839844 L 9.476562 0.640625 C 9.476562 0.351562 9.152344 0.1875 8.921875 0.359375 C 7.640625 1.308594 6.808594 2.832031 6.808594 4.550781 C 6.808594 6.648438 8.046875 8.457031 9.835938 9.285156 C 9.964844 9.34375 10.039062 9.460938 10.039062 9.601562 C 10.039062 14.367188 10.039062 19.132812 10.039062 23.902344 C 10.039062 24.039062 9.964844 24.160156 9.835938 24.21875 C 8.046875 25.042969 6.808594 26.851562 6.808594 28.953125 C 6.808594 30.667969 7.640625 32.191406 8.921875 33.140625 C 9.152344 33.3125 9.476562 33.148438 9.476562 32.859375 L 9.476562 29.660156 C 9.476562 29.554688 9.519531 29.464844 9.597656 29.394531 L 11.792969 27.523438 C 11.925781 27.410156 12.113281 27.410156 12.246094 27.523438 L 14.441406 29.394531 C 14.519531 29.464844 14.5625 29.554688 14.5625 29.660156 L 14.5625 32.859375 C 14.5625 33.148438 14.890625 33.3125 15.121094 33.140625 C 16.402344 32.191406 17.230469 30.667969 17.230469 28.953125 C 17.230469 26.851562 15.992188 25.042969 14.203125 24.21875 C 14.078125 24.160156 14 24.039062 14 23.902344 C 14 19.132812 14 14.367188 14 9.601562 C 14 9.460938 14.078125 9.34375 14.203125 9.285156 C 15.992188 8.457031 17.230469 6.648438 17.230469 4.550781 C 17.230469 2.832031 16.402344 1.308594 15.121094 0.359375 C 14.890625 0.1875 14.5625 0.351562 14.5625 0.640625 L 14.5625 3.839844 C 14.5625 3.945312 14.519531 4.039062 14.441406 4.105469 L 12.246094 5.980469 C 12.113281 6.09375 11.925781 6.09375 11.792969 5.980469 Z M 29.007812 25.246094 C 28.03125 25.246094 27.542969 26.425781 28.230469 27.117188 C 28.359375 27.242188 28.359375 27.449219 28.230469 27.578125 L 27.53125 28.277344 C 27.402344 28.402344 27.199219 28.402344 27.070312 28.277344 C 26.382812 27.585938 25.199219 28.078125 25.199219 29.050781 C 25.199219 29.230469 25.054688 29.378906 24.875 29.378906 L 23.882812 29.378906 C 23.707031 29.378906 23.558594 29.230469 23.558594 29.050781 C 23.558594 28.074219 22.378906 27.585938 21.6875 28.277344 C 21.5625 28.402344 21.355469 28.402344 21.230469 28.277344 L 20.527344 27.578125 C 20.402344 27.449219 20.402344 27.242188 20.527344 27.117188 C 21.21875 26.425781 20.730469 25.246094 19.753906 25.246094 C 19.574219 25.246094 19.429688 25.101562 19.429688 24.921875 L 19.429688 23.929688 C 19.429688 23.75 19.574219 23.605469 19.753906 23.605469 C 20.730469 23.605469 21.21875 22.425781 20.527344 21.734375 C 20.402344 21.609375 20.402344 21.402344 20.527344 21.273438 L 21.230469 20.574219 C 21.355469 20.445312 21.5625 20.445312 21.6875 20.574219 C 22.378906 21.265625 23.558594 20.773438 23.558594 19.800781 C 23.558594 19.621094 23.707031 19.472656 23.882812 19.472656 L 24.875 19.472656 C 25.054688 19.472656 25.199219 19.621094 25.199219 19.800781 C 25.199219 20.773438 26.382812 21.265625 27.070312 20.574219 C 27.199219 20.445312 27.402344 20.445312 27.53125 20.574219 L 28.230469 21.273438 C 28.359375 21.402344 28.359375 21.609375 28.230469 21.734375 C 27.542969 22.425781 28.03125 23.605469 29.007812 23.605469 C 29.1875 23.605469 29.332031 23.75 29.332031 23.929688 L 29.332031 24.921875 C 29.332031 25.101562 29.1875 25.246094 29.007812 25.246094 Z M 24.378906 22.046875 C 23.066406 22.046875 22 23.113281 22 24.425781 C 22 25.738281 23.066406 26.804688 24.378906 26.804688 C 25.695312 26.804688 26.757812 25.738281 26.757812 24.425781 C 26.757812 23.113281 25.695312 22.046875 24.378906 22.046875 Z M 33.050781 12.132812 C 31.699219 12.132812 31.019531 13.773438 31.976562 14.730469 C 32.152344 14.90625 32.152344 15.191406 31.976562 15.367188 L 31.003906 16.339844 C 30.828125 16.515625 30.542969 16.515625 30.363281 16.339844 C 29.410156 15.382812 27.769531 16.0625 27.769531 17.414062 C 27.769531 17.664062 27.566406 17.867188 27.316406 17.867188 L 25.945312 17.867188 C 25.695312 17.867188 25.492188 17.664062 25.492188 17.414062 C 25.492188 16.058594 23.855469 15.382812 22.894531 16.339844 C 22.71875 16.515625 22.433594 16.515625 22.257812 16.339844 L 21.285156 15.367188 C 21.109375 15.191406 21.109375 14.90625 21.285156 14.730469 C 22.242188 13.773438 21.5625 12.132812 20.210938 12.132812 C 19.960938 12.132812 19.757812 11.933594 19.757812 11.683594 L 19.757812 10.308594 C 19.757812 10.058594 19.960938 9.855469 20.210938 9.855469 C 21.5625 9.855469 22.242188 8.21875 21.285156 7.261719 C 21.109375 7.085938 21.109375 6.800781 21.285156 6.621094 L 22.257812 5.652344 C 22.433594 5.476562 22.71875 5.476562 22.894531 5.652344 C 23.851562 6.609375 25.492188 5.929688 25.492188 4.574219 C 25.492188 4.328125 25.695312 4.125 25.945312 4.125 L 27.316406 4.125 C 27.566406 4.125 27.769531 4.328125 27.769531 4.574219 C 27.769531 5.929688 29.410156 6.609375 30.363281 5.652344 C 30.542969 5.476562 30.828125 5.476562 31.003906 5.652344 L 31.976562 6.621094 C 32.152344 6.800781 32.152344 7.085938 31.976562 7.261719 C 31.019531 8.21875 31.699219 9.855469 33.050781 9.855469 C 33.300781 9.855469 33.5 10.058594 33.5 10.308594 L 33.5 11.683594 C 33.5 11.933594 33.300781 12.132812 33.050781 12.132812 Z M 26.628906 7.695312 C 24.808594 7.695312 23.328125 9.171875 23.328125 10.996094 C 23.328125 12.820312 24.808594 14.296875 26.628906 14.296875 C 28.453125 14.296875 29.933594 12.820312 29.933594 10.996094 C 29.933594 9.171875 28.453125 7.695312 26.628906 7.695312 Z M 5.046875 17.699219 L 5.046875 30.976562 C 5.046875 32.367188 3.914062 33.5 2.523438 33.5 C 1.136719 33.5 0 32.367188 0 30.976562 L 0 17.699219 C 0 17.503906 0.15625 17.347656 0.347656 17.347656 L 4.699219 17.347656 C 4.890625 17.347656 5.046875 17.503906 5.046875 17.699219 Z M 5.046875 17.699219 " fill-opacity="1" fill-rule="evenodd"/></g></svg>