<svg xmlns="http://www.w3.org/2000/svg" xmlns:xlink="http://www.w3.org/1999/xlink" width="45" zoomAndPan="magnify" viewBox="0 0 33.75 33.749998" height="45" preserveAspectRatio="xMidYMid meet" version="1.0"><defs><clipPath id="ab518a91b9"><path d="M 0.667969 19 L 29 19 L 29 33.5 L 0.667969 33.5 Z M 0.667969 19 " clip-rule="nonzero"/></clipPath><clipPath id="c6679f6f33"><path d="M 16 0.125 L 23 0.125 L 23 8 L 16 8 Z M 16 0.125 " clip-rule="nonzero"/></clipPath><clipPath id="cf22363752"><path d="M 0.667969 1 L 28 1 L 28 32 L 0.667969 32 Z M 0.667969 1 " clip-rule="nonzero"/></clipPath></defs><g clip-path="url(#ab518a91b9)"><path fill="#ffffff" d="M 13.285156 31.824219 C 10.078125 31.566406 6.960938 30.167969 4.683594 27.894531 C 2.371094 25.589844 0.988281 22.335938 0.835938 19.058594 C 0.664062 22.738281 2.078125 26.527344 4.683594 29.128906 C 6.960938 31.398438 10.078125 32.796875 13.285156 33.054688 C 18.8125 33.503906 24.753906 30.238281 28.484375 25.609375 L 28.078125 24.867188 C 24.335938 29.238281 18.617188 32.257812 13.285156 31.824219 " fill-opacity="1" fill-rule="nonzero"/></g><path fill="#ffffff" d="M 30.3125 21.675781 L 30.632812 22.304688 C 31.308594 20.972656 31.792969 19.585938 32.046875 18.179688 C 32.195312 17.328125 32.242188 16.480469 32.195312 15.648438 C 32.171875 16.078125 32.121094 16.515625 32.046875 16.953125 C 31.757812 18.570312 31.15625 20.164062 30.3125 21.675781 " fill-opacity="1" fill-rule="nonzero"/><path fill="#ffffff" d="M 27.125 14.746094 C 28.210938 17.039062 29.257812 19.359375 30.1875 21.515625 C 31.09375 19.9375 31.742188 18.265625 32.046875 16.570312 C 32.121094 16.136719 32.171875 15.699219 32.191406 15.269531 C 32.273438 13.710938 32.433594 10.597656 30.527344 10.003906 C 28.933594 9.503906 26.855469 10.417969 25.109375 10.613281 C 25.550781 11.488281 25.996094 12.390625 26.445312 13.324219 C 26.667969 13.789062 26.898438 14.265625 27.125 14.746094 " fill-opacity="1" fill-rule="nonzero"/><path fill="#ffffff" d="M 20.546875 7.632812 L 20.890625 8.359375 C 21.15625 8.140625 21.457031 7.945312 21.78125 7.789062 C 22.121094 7.628906 22.46875 7.519531 22.816406 7.453125 C 22.820312 7.453125 22.820312 7.453125 22.820312 7.453125 L 22.476562 6.730469 C 22.476562 6.730469 22.476562 6.730469 22.472656 6.730469 C 22.125 6.796875 21.777344 6.90625 21.4375 7.066406 C 21.113281 7.21875 20.8125 7.414062 20.546875 7.632812 " fill-opacity="1" fill-rule="nonzero"/><g clip-path="url(#c6679f6f33)"><path fill="#ffffff" d="M 17.355469 0.914062 C 18.027344 1.476562 18.140625 2.277344 18.125 3.105469 C 18.105469 3.941406 18.1875 4.734375 18.6875 5.429688 C 19.027344 5.894531 19.488281 6.285156 20.035156 6.488281 C 20.121094 6.519531 20.210938 6.542969 20.300781 6.566406 L 20.445312 7.414062 C 20.71875 7.164062 21.007812 6.960938 21.320312 6.816406 C 21.644531 6.664062 21.992188 6.566406 22.371094 6.515625 C 22.371094 6.515625 22.375 6.515625 22.375 6.511719 L 21.832031 5.886719 C 23.023438 4.222656 22.207031 1.976562 20.5625 0.90625 C 19.777344 0.398438 18.84375 0.117188 17.90625 0.125 C 17.421875 0.128906 16.921875 0.214844 16.527344 0.496094 C 16.671875 0.390625 17.25 0.824219 17.355469 0.914062 " fill-opacity="1" fill-rule="nonzero"/></g><g clip-path="url(#cf22363752)"><path fill="#ffffff" d="M 8.335938 15.652344 C 10.078125 15.652344 11.492188 17.0625 11.492188 18.808594 C 11.492188 20.550781 10.078125 21.960938 8.335938 21.960938 C 6.59375 21.960938 5.179688 20.550781 5.179688 18.808594 C 5.179688 17.0625 6.59375 15.652344 8.335938 15.652344 Z M 11.152344 5.765625 C 13.199219 5.765625 14.855469 7.421875 14.855469 9.464844 C 14.855469 11.511719 13.199219 13.167969 11.152344 13.167969 C 9.109375 13.167969 7.453125 11.511719 7.453125 9.464844 C 7.453125 7.421875 9.109375 5.765625 11.152344 5.765625 Z M 18.722656 24.804688 C 18.722656 26.375 17.449219 27.644531 15.878906 27.644531 C 14.308594 27.644531 13.039062 26.375 13.039062 24.804688 C 13.039062 23.234375 14.308594 21.960938 15.878906 21.960938 C 17.449219 21.960938 18.722656 23.234375 18.722656 24.804688 Z M 4.683594 27.515625 C 6.960938 29.789062 10.082031 31.1875 13.285156 31.445312 C 18.558594 31.875 24.203125 28.921875 27.949219 24.632812 C 27.535156 23.859375 27.109375 23.039062 26.675781 22.195312 C 26.253906 22.496094 25.738281 22.671875 25.183594 22.671875 C 23.75 22.671875 22.589844 21.511719 22.589844 20.078125 C 22.589844 18.921875 23.347656 17.941406 24.398438 17.609375 C 24.191406 17.183594 23.988281 16.757812 23.785156 16.328125 C 23.574219 15.890625 23.371094 15.449219 23.171875 15.019531 L 23.117188 14.902344 C 22.128906 12.785156 19.671875 7.195312 19.570312 6.929688 C 19.046875 6.679688 18.574219 6.292969 18.203125 5.78125 C 17.570312 4.902344 17.503906 3.929688 17.523438 3.09375 C 17.523438 3.085938 17.523438 3.078125 17.523438 3.070312 C 17.34375 2.894531 17.148438 2.726562 16.929688 2.574219 C 13.550781 0.210938 8.753906 3.351562 6.429688 5.765625 C 3.828125 8.464844 1.6875 12.128906 1.023438 15.8125 C 0.851562 16.757812 0.789062 17.71875 0.835938 18.679688 C 0.992188 21.957031 2.367188 25.210938 4.683594 27.515625 " fill-opacity="1" fill-rule="nonzero"/></g><path fill="#ffffff" d="M 26.582031 15.003906 C 26.355469 14.523438 26.128906 14.050781 25.902344 13.585938 C 24.878906 11.457031 23.878906 9.484375 22.960938 7.757812 C 22.609375 7.820312 22.265625 7.933594 21.925781 8.089844 C 21.589844 8.25 21.28125 8.449219 21.011719 8.675781 C 21.765625 10.480469 22.664062 12.507812 23.660156 14.648438 C 23.878906 15.117188 24.101562 15.59375 24.328125 16.070312 C 28.148438 24.136719 32.234375 31.464844 32.859375 31.167969 C 33.480469 30.875 30.402344 23.066406 26.582031 15.003906 " fill-opacity="1" fill-rule="nonzero"/></svg>