<svg viewBox="-0.5 -0.5 16 16" fill="#0a364f" xmlns="http://www.w3.org/2000/svg" id="Double-Quotes-L--Streamline-Remix" height="16" width="16"><desc>Double Quotes L Streamline Icon: https://streamlinehq.com</desc><path d="M2.86463125 10.8256875C2.220725 10.142125 1.875 9.375 1.875 8.1314375c0 -2.18715 1.53531875 -4.1479 3.76911875 -5.11695l0.55793125 0.86100625C4.1175250000000005 5.00336875 3.7101125 6.4662500000000005 3.547275 7.38875c0.33561874999999997 -0.1735625 0.7749625 -0.234625 1.20566875 -0.1946875C5.880675 7.2986249999999995 6.769500000000001 8.224375 6.769500000000001 9.375c0 1.2081250000000001 -0.9794 2.1875 -2.187525 2.1875 -0.6706624999999999 0 -1.312 -0.3065625 -1.71734375 -0.7368125000000001Zm6.24999375 0C8.47075 10.142125 8.125 9.375 8.125 8.1314375c0 -2.18715 1.5353125 -4.1479 3.769125 -5.11695l0.5579375 0.86100625c-2.0845625 1.127875 -2.4919374999999997 2.5907562499999996 -2.6548125000000002 3.5132562499999995 0.335625 -0.1735625 0.775 -0.234625 1.2056875 -0.1946875 1.12775 0.1045625 2.0165625 1.0303125 2.0165625 2.1809375 0 1.2081250000000001 -0.979375 2.1875 -2.1875 2.1875 -0.6706875 0 -1.312 -0.3065625 -1.7173749999999999 -0.7368125000000001Z" stroke-width="1"></path></svg>