<svg viewBox="-0.5 -0.5 16 16" fill="#0a364f" xmlns="http://www.w3.org/2000/svg" id="Double-Quotes-R--Streamline-Remix" height="16" width="16"><desc>Double Quotes R Streamline Icon: https://streamlinehq.com</desc><path d="M12.135437499999998 4.17431875C12.7793125 4.85785625 13.1250625 5.625 13.1250625 6.8685624999999995c0 2.187125 -1.5353125 4.147875 -3.769125 5.1169375l-0.5579375 -0.861c2.0845625 -1.127875 2.4919374999999997 -2.5908124999999997 2.6548125000000002 -3.51325 -0.335625 0.1735625 -0.775 0.2345625 -1.2056875 0.1946875 -1.12775 -0.1045625 -2.0165625 -1.030375 -2.0165625 -2.1809375 0 -1.2081250000000001 0.979375 -2.1875 2.1875 -2.1875 0.6706875 0 1.312 0.30653125 1.7173749999999999 0.73681875Zm-6.25000625 0C6.5293125 4.85785625 6.8750625 5.625 6.8750625 6.8685624999999995c0 2.187125 -1.53531875 4.147875 -3.76911875 5.1169375l-0.55793125 -0.861c2.084525 -1.127875 2.4919374999999997 -2.5908124999999997 2.65478125 -3.51325 -0.335625 0.1735625 -0.7749687500000001 0.2345625 -1.2056749999999998 0.1946875C2.8693875 7.7013750000000005 1.9805937500000002 6.7755624999999995 1.9805937500000002 5.625c0 -1.2081250000000001 0.979375 -2.1875 2.1875 -2.1875 0.6706562500000001 0 1.31199375 0.30653125 1.7173375 0.73681875Z" stroke-width="1"></path></svg>