<svg xmlns="http://www.w3.org/2000/svg" xmlns:xlink="http://www.w3.org/1999/xlink" width="45" zoomAndPan="magnify" viewBox="0 0 33.75 33.749998" height="45" preserveAspectRatio="xMidYMid meet" version="1.0"><defs><clipPath id="278b295079"><path d="M 0 0 L 33.5 0 L 33.5 33.5 L 0 33.5 Z M 0 0 " clip-rule="nonzero"/></clipPath></defs><g clip-path="url(#278b295079)"><path fill="#ffffff" d="M 12.519531 6.328125 L 14.757812 8.851562 C 14.957031 9.078125 15.300781 9.101562 15.523438 8.902344 L 20.945312 4.136719 C 21.171875 3.9375 21.195312 3.589844 20.992188 3.367188 C 20.796875 3.140625 20.449219 3.117188 20.21875 3.316406 L 15.269531 7.675781 C 15.238281 7.699219 15.191406 7.699219 15.167969 7.667969 L 13.335938 5.601562 C 13.136719 5.375 12.792969 5.355469 12.566406 5.554688 C 12.339844 5.757812 12.320312 6.101562 12.519531 6.328125 Z M 10.648438 6.109375 C 10.648438 2.742188 13.386719 0 16.753906 0 C 20.121094 0 22.859375 2.742188 22.859375 6.109375 C 22.859375 9.476562 20.121094 12.214844 16.753906 12.214844 C 13.386719 12.214844 10.648438 9.476562 10.648438 6.109375 Z M 16.167969 17.503906 L 4.101562 11.503906 C 4.050781 11.476562 3.992188 11.515625 3.992188 11.566406 L 3.992188 22.9375 C 3.992188 23.273438 4.164062 23.550781 4.464844 23.699219 L 16.101562 29.484375 C 16.148438 29.507812 16.210938 29.472656 16.210938 29.421875 L 16.210938 17.570312 C 16.210938 17.539062 16.191406 17.515625 16.167969 17.503906 Z M 29.515625 22.9375 L 29.515625 11.566406 C 29.515625 11.507812 29.457031 11.480469 29.414062 11.503906 L 17.34375 17.503906 C 17.3125 17.515625 17.300781 17.539062 17.300781 17.570312 L 17.300781 29.421875 C 17.300781 29.476562 17.359375 29.511719 17.40625 29.484375 L 29.046875 23.699219 C 29.34375 23.550781 29.515625 23.273438 29.515625 22.9375 Z M 28.746094 10.570312 C 28.746094 10.597656 28.730469 10.621094 28.707031 10.632812 L 16.789062 16.558594 C 16.765625 16.570312 16.742188 16.570312 16.722656 16.558594 L 4.808594 10.632812 C 4.75 10.609375 4.753906 10.53125 4.808594 10.503906 L 9.734375 8.054688 C 9.777344 8.03125 9.828125 8.054688 9.839844 8.097656 C 10.699219 11.101562 13.476562 13.308594 16.753906 13.308594 C 20.039062 13.308594 22.804688 11.101562 23.675781 8.097656 C 23.6875 8.050781 23.738281 8.035156 23.777344 8.054688 L 28.707031 10.503906 C 28.730469 10.515625 28.746094 10.542969 28.746094 10.570312 Z M 32.945312 0.453125 L 27.589844 0.453125 C 27.285156 0.453125 27.042969 0.699219 27.042969 1 C 27.042969 1.300781 27.285156 1.542969 27.589844 1.542969 L 31.449219 1.542969 C 31.523438 1.542969 31.542969 1.628906 31.503906 1.667969 L 25.621094 7.542969 C 25.589844 7.582031 25.601562 7.640625 25.640625 7.660156 L 26.535156 8.105469 C 26.5625 8.121094 26.597656 8.113281 26.621094 8.09375 L 32.273438 2.441406 C 32.316406 2.394531 32.398438 2.429688 32.398438 2.492188 L 32.398438 6.351562 C 32.398438 6.652344 32.640625 6.898438 32.945312 6.898438 C 33.246094 6.898438 33.488281 6.652344 33.488281 6.351562 L 33.488281 1 C 33.488281 0.699219 33.246094 0.453125 32.945312 0.453125 Z M 32.945312 27.476562 C 33.246094 27.476562 33.488281 27.71875 33.488281 28.019531 L 33.488281 33.375 C 33.488281 33.675781 33.246094 33.917969 32.945312 33.917969 L 27.589844 33.917969 C 27.285156 33.917969 27.042969 33.675781 27.042969 33.375 C 27.042969 33.070312 27.285156 32.828125 27.589844 32.828125 L 31.449219 32.828125 C 31.519531 32.828125 31.542969 32.746094 31.503906 32.703125 L 25.621094 26.828125 C 25.589844 26.789062 25.601562 26.730469 25.640625 26.710938 L 26.535156 26.265625 C 26.566406 26.25 26.601562 26.257812 26.621094 26.28125 L 32.273438 31.929688 C 32.316406 31.980469 32.398438 31.941406 32.398438 31.878906 L 32.398438 28.019531 C 32.398438 27.71875 32.640625 27.476562 32.945312 27.476562 Z M 7.867188 26.710938 C 7.90625 26.730469 7.925781 26.792969 7.886719 26.828125 L 2.007812 32.703125 C 1.964844 32.746094 1.996094 32.828125 2.058594 32.828125 L 5.921875 32.828125 C 6.21875 32.828125 6.464844 33.070312 6.464844 33.375 C 6.464844 33.675781 6.21875 33.917969 5.921875 33.917969 L 0.570312 33.917969 C 0.265625 33.917969 0.0195312 33.675781 0.0195312 33.375 L 0.0195312 28.019531 C 0.0195312 27.71875 0.265625 27.476562 0.570312 27.476562 C 0.871094 27.476562 1.113281 27.71875 1.113281 28.019531 L 1.113281 31.878906 C 1.113281 31.941406 1.191406 31.980469 1.242188 31.929688 L 6.890625 26.28125 C 6.914062 26.257812 6.945312 26.25 6.972656 26.265625 Z M 0.0195312 6.351562 C 0.0195312 6.652344 0.265625 6.898438 0.570312 6.898438 C 0.871094 6.898438 1.113281 6.652344 1.113281 6.351562 L 1.113281 2.492188 C 1.113281 2.433594 1.191406 2.390625 1.242188 2.441406 L 6.890625 8.09375 C 6.914062 8.113281 6.945312 8.121094 6.972656 8.105469 L 7.867188 7.660156 C 7.914062 7.640625 7.921875 7.578125 7.886719 7.542969 L 2.007812 1.667969 C 1.960938 1.625 2 1.542969 2.058594 1.542969 L 5.921875 1.542969 C 6.21875 1.542969 6.464844 1.300781 6.464844 1 C 6.464844 0.699219 6.21875 0.453125 5.921875 0.453125 L 0.570312 0.453125 C 0.265625 0.453125 0.0195312 0.699219 0.0195312 1 Z M 0.0195312 6.351562 " fill-opacity="1" fill-rule="evenodd"/></g></svg>