<svg xmlns="http://www.w3.org/2000/svg" xmlns:xlink="http://www.w3.org/1999/xlink" width="45" zoomAndPan="magnify" viewBox="0 0 33.75 33.749998" height="45" preserveAspectRatio="xMidYMid meet" version="1.0"><defs><clipPath id="0671b77d5a"><path d="M 25 24 L 33.5 24 L 33.5 31 L 25 31 Z M 25 24 " clip-rule="nonzero"/></clipPath><clipPath id="f8e1f8bb98"><path d="M 9 18 L 24 18 L 24 33.5 L 9 33.5 Z M 9 18 " clip-rule="nonzero"/></clipPath></defs><path fill="#ffffff" d="M 3.78125 24.285156 C 4.070312 24.285156 4.34375 24.230469 4.609375 24.117188 C 4.875 24.007812 5.109375 23.851562 5.3125 23.648438 C 5.511719 23.449219 5.667969 23.214844 5.78125 22.949219 C 5.890625 22.683594 5.945312 22.410156 5.945312 22.121094 C 5.945312 21.835938 5.890625 21.558594 5.78125 21.292969 C 5.667969 21.03125 5.511719 20.796875 5.3125 20.59375 C 5.109375 20.390625 4.875 20.234375 4.609375 20.125 C 4.34375 20.015625 4.070312 19.960938 3.78125 19.960938 C 3.496094 19.960938 3.21875 20.015625 2.957031 20.125 C 2.691406 20.234375 2.457031 20.390625 2.253906 20.59375 C 2.050781 20.796875 1.894531 21.03125 1.785156 21.292969 C 1.675781 21.558594 1.621094 21.835938 1.621094 22.121094 C 1.621094 22.410156 1.675781 22.683594 1.785156 22.949219 C 1.894531 23.214844 2.050781 23.449219 2.253906 23.648438 C 2.457031 23.851562 2.691406 24.007812 2.957031 24.117188 C 3.21875 24.230469 3.496094 24.285156 3.78125 24.285156 Z M 3.78125 21.042969 C 3.925781 21.042969 4.0625 21.070312 4.195312 21.125 C 4.328125 21.179688 4.445312 21.257812 4.546875 21.359375 C 4.648438 21.460938 4.726562 21.574219 4.78125 21.707031 C 4.835938 21.839844 4.863281 21.980469 4.863281 22.121094 C 4.863281 22.265625 4.835938 22.402344 4.78125 22.535156 C 4.726562 22.667969 4.648438 22.785156 4.546875 22.886719 C 4.445312 22.988281 4.328125 23.066406 4.195312 23.121094 C 4.0625 23.175781 3.925781 23.203125 3.78125 23.203125 C 3.640625 23.203125 3.5 23.175781 3.367188 23.121094 C 3.238281 23.066406 3.121094 22.988281 3.019531 22.886719 C 2.917969 22.785156 2.839844 22.667969 2.785156 22.535156 C 2.730469 22.402344 2.703125 22.265625 2.703125 22.121094 C 2.703125 21.980469 2.730469 21.839844 2.785156 21.707031 C 2.839844 21.574219 2.917969 21.460938 3.019531 21.359375 C 3.121094 21.257812 3.238281 21.179688 3.367188 21.125 C 3.5 21.070312 3.640625 21.042969 3.78125 21.042969 Z M 3.78125 21.042969 " fill-opacity="1" fill-rule="nonzero"/><path fill="#ffffff" d="M 0.539062 30.226562 L 7.023438 30.226562 C 7.171875 30.226562 7.300781 30.175781 7.40625 30.070312 C 7.511719 29.964844 7.566406 29.835938 7.566406 29.6875 L 7.566406 27.527344 C 7.566406 27.167969 7.496094 26.824219 7.359375 26.492188 C 7.222656 26.160156 7.027344 25.867188 6.773438 25.613281 C 6.519531 25.363281 6.226562 25.167969 5.898438 25.03125 C 5.566406 24.890625 5.222656 24.824219 4.863281 24.824219 L 2.703125 24.824219 C 2.34375 24.824219 2 24.890625 1.667969 25.03125 C 1.335938 25.167969 1.042969 25.363281 0.792969 25.613281 C 0.539062 25.867188 0.34375 26.160156 0.207031 26.492188 C 0.0703125 26.824219 0 27.167969 0 27.527344 L 0 29.6875 C 0 29.835938 0.0546875 29.964844 0.160156 30.070312 C 0.265625 30.175781 0.390625 30.226562 0.539062 30.226562 Z M 1.082031 27.527344 C 1.082031 27.3125 1.121094 27.105469 1.203125 26.90625 C 1.285156 26.707031 1.402344 26.53125 1.554688 26.378906 C 1.707031 26.226562 1.882812 26.109375 2.082031 26.027344 C 2.28125 25.945312 2.488281 25.90625 2.703125 25.90625 L 4.863281 25.90625 C 5.078125 25.90625 5.285156 25.945312 5.484375 26.027344 C 5.683594 26.109375 5.859375 26.226562 6.007812 26.378906 C 6.160156 26.53125 6.277344 26.707031 6.359375 26.90625 C 6.441406 27.105469 6.484375 27.3125 6.484375 27.527344 L 6.484375 29.148438 L 1.082031 29.148438 Z M 1.082031 27.527344 " fill-opacity="1" fill-rule="nonzero"/><path fill="#ffffff" d="M 29.71875 24.285156 C 30.007812 24.285156 30.28125 24.230469 30.546875 24.117188 C 30.8125 24.007812 31.046875 23.851562 31.246094 23.648438 C 31.449219 23.449219 31.605469 23.214844 31.714844 22.949219 C 31.824219 22.683594 31.878906 22.410156 31.878906 22.121094 C 31.878906 21.835938 31.824219 21.558594 31.714844 21.292969 C 31.605469 21.03125 31.449219 20.796875 31.246094 20.59375 C 31.046875 20.390625 30.8125 20.234375 30.546875 20.125 C 30.28125 20.015625 30.007812 19.960938 29.71875 19.960938 C 29.433594 19.960938 29.15625 20.015625 28.890625 20.125 C 28.628906 20.234375 28.394531 20.390625 28.191406 20.59375 C 27.988281 20.796875 27.832031 21.03125 27.722656 21.292969 C 27.613281 21.558594 27.558594 21.835938 27.558594 22.121094 C 27.558594 22.410156 27.613281 22.683594 27.722656 22.949219 C 27.832031 23.214844 27.988281 23.449219 28.191406 23.648438 C 28.394531 23.851562 28.628906 24.007812 28.890625 24.117188 C 29.15625 24.230469 29.433594 24.285156 29.71875 24.285156 Z M 29.71875 21.042969 C 29.863281 21.042969 30 21.070312 30.132812 21.125 C 30.265625 21.179688 30.382812 21.257812 30.484375 21.359375 C 30.585938 21.460938 30.664062 21.574219 30.71875 21.707031 C 30.773438 21.839844 30.800781 21.980469 30.800781 22.121094 C 30.800781 22.265625 30.773438 22.402344 30.71875 22.535156 C 30.664062 22.667969 30.585938 22.785156 30.484375 22.886719 C 30.382812 22.988281 30.265625 23.066406 30.132812 23.121094 C 30 23.175781 29.863281 23.203125 29.71875 23.203125 C 29.574219 23.203125 29.4375 23.175781 29.304688 23.121094 C 29.171875 23.066406 29.054688 22.988281 28.957031 22.886719 C 28.855469 22.785156 28.777344 22.667969 28.722656 22.535156 C 28.667969 22.402344 28.636719 22.265625 28.636719 22.121094 C 28.636719 21.980469 28.667969 21.839844 28.722656 21.707031 C 28.777344 21.574219 28.855469 21.460938 28.957031 21.359375 C 29.054688 21.257812 29.171875 21.179688 29.304688 21.125 C 29.4375 21.070312 29.574219 21.042969 29.71875 21.042969 Z M 29.71875 21.042969 " fill-opacity="1" fill-rule="nonzero"/><g clip-path="url(#0671b77d5a)"><path fill="#ffffff" d="M 30.800781 24.824219 L 28.636719 24.824219 C 28.28125 24.824219 27.9375 24.890625 27.605469 25.03125 C 27.273438 25.167969 26.980469 25.363281 26.726562 25.613281 C 26.476562 25.867188 26.28125 26.160156 26.140625 26.492188 C 26.003906 26.824219 25.9375 27.167969 25.9375 27.527344 L 25.9375 29.6875 C 25.9375 29.835938 25.988281 29.964844 26.09375 30.070312 C 26.199219 30.175781 26.328125 30.226562 26.476562 30.226562 L 32.960938 30.226562 C 33.109375 30.226562 33.238281 30.175781 33.34375 30.070312 C 33.449219 29.964844 33.5 29.835938 33.5 29.6875 L 33.5 27.527344 C 33.5 27.167969 33.433594 26.824219 33.296875 26.492188 C 33.160156 26.160156 32.964844 25.867188 32.710938 25.613281 C 32.457031 25.363281 32.164062 25.167969 31.835938 25.03125 C 31.503906 24.890625 31.160156 24.824219 30.800781 24.824219 Z M 32.421875 29.148438 L 27.019531 29.148438 L 27.019531 27.527344 C 27.019531 27.3125 27.058594 27.105469 27.140625 26.90625 C 27.222656 26.707031 27.339844 26.53125 27.492188 26.378906 C 27.644531 26.226562 27.820312 26.109375 28.019531 26.027344 C 28.21875 25.945312 28.421875 25.90625 28.636719 25.90625 L 30.800781 25.90625 C 31.015625 25.90625 31.222656 25.945312 31.421875 26.027344 C 31.617188 26.109375 31.792969 26.226562 31.945312 26.378906 C 32.097656 26.53125 32.214844 26.707031 32.296875 26.90625 C 32.378906 27.105469 32.421875 27.3125 32.421875 27.527344 Z M 32.421875 29.148438 " fill-opacity="1" fill-rule="nonzero"/></g><g clip-path="url(#f8e1f8bb98)"><path fill="#ffffff" d="M 23.234375 33.5 C 23.382812 33.5 23.511719 33.449219 23.617188 33.34375 C 23.722656 33.238281 23.777344 33.109375 23.777344 32.960938 L 23.777344 30.800781 C 23.777344 30.441406 23.707031 30.097656 23.570312 29.765625 C 23.433594 29.433594 23.238281 29.144531 22.984375 28.890625 C 22.730469 28.636719 22.4375 28.441406 22.109375 28.304688 C 21.777344 28.167969 21.433594 28.097656 21.074219 28.097656 L 18.914062 28.097656 L 18.914062 27.816406 L 18.976562 27.816406 C 19.289062 27.691406 19.535156 27.488281 19.722656 27.210938 C 19.90625 26.929688 20 26.625 19.992188 26.289062 L 19.992188 24.710938 C 20.351562 24.503906 20.53125 24.191406 20.535156 23.777344 C 20.53125 23.648438 20.503906 23.523438 20.457031 23.402344 L 20.761719 22.835938 C 20.976562 22.433594 21.078125 22.007812 21.070312 21.550781 C 21.058594 21.097656 20.9375 20.675781 20.699219 20.285156 C 20.4375 19.851562 20.085938 19.511719 19.640625 19.265625 C 19.195312 19.023438 18.722656 18.902344 18.214844 18.914062 L 15.285156 18.914062 C 14.78125 18.902344 14.304688 19.023438 13.859375 19.265625 C 13.417969 19.511719 13.0625 19.851562 12.800781 20.285156 C 12.566406 20.675781 12.441406 21.097656 12.433594 21.550781 C 12.421875 22.007812 12.523438 22.433594 12.742188 22.835938 L 13.042969 23.402344 C 12.996094 23.523438 12.972656 23.648438 12.96875 23.777344 C 12.96875 24.191406 13.148438 24.503906 13.507812 24.710938 L 13.507812 26.289062 C 13.507812 26.621094 13.601562 26.921875 13.789062 27.195312 C 13.976562 27.46875 14.222656 27.667969 14.53125 27.789062 L 14.589844 27.789062 L 14.589844 28.097656 L 12.429688 28.097656 C 12.070312 28.097656 11.726562 28.167969 11.394531 28.304688 C 11.0625 28.441406 10.769531 28.636719 10.519531 28.890625 C 10.265625 29.144531 10.070312 29.433594 9.933594 29.765625 C 9.792969 30.097656 9.726562 30.441406 9.726562 30.800781 L 9.726562 32.960938 C 9.726562 33.109375 9.777344 33.238281 9.882812 33.34375 C 9.988281 33.449219 10.117188 33.5 10.265625 33.5 Z M 13.746094 22.429688 L 13.691406 22.328125 C 13.566406 22.09375 13.503906 21.84375 13.511719 21.578125 C 13.515625 21.3125 13.589844 21.066406 13.730469 20.839844 C 13.894531 20.570312 14.117188 20.359375 14.394531 20.210938 C 14.671875 20.058594 14.96875 19.984375 15.285156 19.992188 L 18.214844 19.992188 C 18.53125 19.984375 18.828125 20.058594 19.105469 20.210938 C 19.382812 20.359375 19.605469 20.570312 19.773438 20.839844 C 19.910156 21.066406 19.984375 21.3125 19.992188 21.578125 C 19.996094 21.84375 19.9375 22.09375 19.808594 22.328125 L 19.753906 22.429688 L 19.453125 21.441406 C 19.410156 21.296875 19.324219 21.191406 19.195312 21.117188 C 19.0625 21.046875 18.925781 21.03125 18.78125 21.074219 L 16.75 21.613281 L 14.71875 21.074219 C 14.582031 21.039062 14.453125 21.054688 14.328125 21.125 C 14.207031 21.191406 14.121094 21.292969 14.078125 21.425781 Z M 14.050781 23.777344 C 14.308594 23.777344 14.480469 23.652344 14.5625 23.40625 L 14.945312 22.257812 L 16.621094 22.679688 C 16.707031 22.699219 16.792969 22.699219 16.878906 22.679688 L 18.554688 22.257812 L 18.9375 23.40625 C 19.023438 23.652344 19.195312 23.777344 19.453125 23.777344 C 19.304688 23.777344 19.175781 23.828125 19.070312 23.933594 C 18.964844 24.039062 18.914062 24.167969 18.914062 24.316406 L 18.914062 26.289062 C 18.910156 26.53125 18.796875 26.695312 18.570312 26.785156 L 16.949219 27.433594 C 16.816406 27.488281 16.683594 27.488281 16.550781 27.433594 L 14.929688 26.785156 C 14.707031 26.695312 14.589844 26.53125 14.589844 26.289062 L 14.589844 24.316406 C 14.589844 24.167969 14.535156 24.039062 14.429688 23.933594 C 14.324219 23.828125 14.199219 23.777344 14.050781 23.777344 Z M 17.832031 28.25 L 17.832031 28.636719 C 17.832031 28.78125 17.804688 28.917969 17.75 29.050781 C 17.695312 29.183594 17.617188 29.300781 17.515625 29.402344 C 17.414062 29.503906 17.296875 29.582031 17.164062 29.636719 C 17.03125 29.691406 16.894531 29.71875 16.75 29.71875 C 16.609375 29.71875 16.46875 29.691406 16.335938 29.636719 C 16.203125 29.582031 16.089844 29.503906 15.988281 29.402344 C 15.886719 29.300781 15.808594 29.183594 15.753906 29.050781 C 15.699219 28.917969 15.671875 28.78125 15.671875 28.636719 L 15.671875 28.25 L 16.152344 28.4375 C 16.550781 28.605469 16.949219 28.605469 17.351562 28.4375 Z M 10.808594 30.800781 C 10.808594 30.585938 10.847656 30.378906 10.929688 30.179688 C 11.011719 29.980469 11.128906 29.804688 11.28125 29.652344 C 11.433594 29.5 11.609375 29.382812 11.808594 29.300781 C 12.007812 29.21875 12.214844 29.179688 12.429688 29.179688 L 14.660156 29.179688 C 14.785156 29.65625 15.039062 30.042969 15.429688 30.34375 C 15.820312 30.644531 16.257812 30.792969 16.75 30.792969 C 17.242188 30.792969 17.683594 30.644531 18.070312 30.34375 C 18.460938 30.042969 18.71875 29.65625 18.84375 29.179688 L 21.074219 29.179688 C 21.289062 29.179688 21.496094 29.21875 21.695312 29.300781 C 21.894531 29.382812 22.066406 29.5 22.21875 29.652344 C 22.371094 29.804688 22.488281 29.980469 22.570312 30.179688 C 22.652344 30.378906 22.695312 30.585938 22.695312 30.800781 L 22.695312 32.421875 L 10.808594 32.421875 Z M 10.808594 30.800781 " fill-opacity="1" fill-rule="nonzero"/></g><path fill="#ffffff" d="M 5.945312 16.210938 C 5.875 16 5.730469 15.882812 5.511719 15.847656 L 4.679688 15.722656 L 4.300781 14.917969 C 4.207031 14.707031 4.042969 14.601562 3.808594 14.601562 C 3.578125 14.601562 3.414062 14.707031 3.316406 14.917969 L 2.941406 15.722656 L 2.105469 15.847656 C 1.890625 15.882812 1.746094 16 1.675781 16.210938 C 1.609375 16.414062 1.648438 16.59375 1.800781 16.75 L 2.421875 17.386719 L 2.273438 18.289062 C 2.25 18.507812 2.324219 18.679688 2.507812 18.804688 C 2.6875 18.925781 2.875 18.9375 3.070312 18.832031 L 3.78125 18.4375 L 4.523438 18.847656 C 4.605469 18.890625 4.691406 18.914062 4.78125 18.914062 C 4.898438 18.914062 5 18.878906 5.09375 18.816406 C 5.285156 18.683594 5.359375 18.503906 5.316406 18.273438 L 5.171875 17.371094 L 5.792969 16.75 C 5.953125 16.601562 6.003906 16.421875 5.945312 16.210938 Z M 4.203125 16.820312 C 4.078125 16.953125 4.027344 17.105469 4.058594 17.285156 L 4.058594 17.363281 L 4.027344 17.363281 C 3.84375 17.257812 3.664062 17.257812 3.484375 17.363281 L 3.453125 17.363281 L 3.453125 17.285156 C 3.484375 17.105469 3.433594 16.953125 3.308594 16.820312 L 3.28125 16.75 L 3.359375 16.75 C 3.5625 16.722656 3.703125 16.613281 3.78125 16.425781 C 3.867188 16.601562 4.003906 16.703125 4.191406 16.730469 L 4.273438 16.730469 Z M 4.203125 16.820312 " fill-opacity="1" fill-rule="nonzero"/><path fill="#ffffff" d="M 31.878906 16.210938 C 31.808594 16 31.667969 15.882812 31.449219 15.847656 L 30.617188 15.722656 L 30.238281 14.917969 C 30.140625 14.707031 29.976562 14.601562 29.746094 14.601562 C 29.515625 14.601562 29.351562 14.707031 29.253906 14.917969 L 28.875 15.722656 L 28.042969 15.847656 C 27.828125 15.882812 27.683594 16 27.613281 16.210938 C 27.546875 16.414062 27.585938 16.59375 27.734375 16.75 L 28.359375 17.386719 L 28.210938 18.289062 C 28.183594 18.507812 28.261719 18.679688 28.445312 18.804688 C 28.625 18.925781 28.8125 18.9375 29.007812 18.832031 L 29.71875 18.4375 L 30.460938 18.847656 C 30.539062 18.890625 30.628906 18.914062 30.71875 18.914062 C 30.832031 18.914062 30.9375 18.878906 31.03125 18.816406 C 31.222656 18.683594 31.296875 18.503906 31.253906 18.273438 L 31.109375 17.371094 L 31.730469 16.75 C 31.890625 16.601562 31.941406 16.421875 31.878906 16.210938 Z M 30.167969 16.835938 C 30.042969 16.96875 29.992188 17.121094 30.023438 17.300781 L 30.023438 17.378906 L 29.988281 17.378906 C 29.808594 17.273438 29.628906 17.273438 29.449219 17.378906 L 29.417969 17.378906 L 29.417969 17.300781 C 29.445312 17.121094 29.398438 16.96875 29.269531 16.835938 L 29.21875 16.75 L 29.296875 16.75 C 29.5 16.722656 29.640625 16.613281 29.71875 16.425781 C 29.800781 16.601562 29.9375 16.703125 30.128906 16.730469 L 30.210938 16.730469 Z M 30.167969 16.835938 " fill-opacity="1" fill-rule="nonzero"/><path fill="#ffffff" d="M 11.914062 6.910156 C 11.847656 7.117188 11.890625 7.296875 12.039062 7.453125 L 14.011719 9.472656 L 13.546875 12.332031 C 13.519531 12.550781 13.597656 12.71875 13.777344 12.84375 C 13.960938 12.964844 14.148438 12.976562 14.339844 12.871094 L 16.75 11.570312 L 19.160156 12.902344 C 19.242188 12.949219 19.328125 12.96875 19.421875 12.96875 C 19.535156 12.96875 19.640625 12.9375 19.734375 12.871094 C 19.921875 12.738281 19.996094 12.558594 19.957031 12.332031 L 19.492188 9.472656 L 21.460938 7.453125 C 21.613281 7.296875 21.652344 7.117188 21.585938 6.910156 C 21.515625 6.703125 21.371094 6.582031 21.15625 6.550781 L 18.453125 6.136719 L 17.242188 3.554688 C 17.148438 3.34375 16.984375 3.238281 16.75 3.238281 C 16.519531 3.238281 16.355469 3.34375 16.257812 3.554688 L 15.046875 6.136719 L 12.347656 6.550781 C 12.128906 6.582031 11.984375 6.703125 11.914062 6.910156 Z M 15.496094 7.160156 C 15.6875 7.128906 15.820312 7.03125 15.902344 6.855469 L 16.75 5.050781 L 17.597656 6.855469 C 17.679688 7.03125 17.816406 7.128906 18.003906 7.160156 L 19.949219 7.460938 L 18.523438 8.921875 C 18.394531 9.050781 18.347656 9.207031 18.378906 9.386719 L 18.710938 11.417969 L 17.011719 10.476562 C 16.832031 10.375 16.648438 10.375 16.46875 10.476562 L 14.769531 11.417969 L 15.128906 9.386719 C 15.160156 9.207031 15.109375 9.050781 14.984375 8.921875 L 13.558594 7.460938 Z M 15.496094 7.160156 " fill-opacity="1" fill-rule="nonzero"/><path fill="#ffffff" d="M 8.273438 10.347656 C 8.382812 10.90625 8.550781 11.445312 8.769531 11.96875 L 9.765625 11.550781 C 9.574219 11.09375 9.429688 10.625 9.332031 10.136719 Z M 8.273438 10.347656 " fill-opacity="1" fill-rule="nonzero"/><path fill="#ffffff" d="M 8.753906 5.355469 L 9.753906 5.765625 C 9.941406 5.308594 10.175781 4.871094 10.449219 4.457031 L 9.546875 3.859375 C 9.234375 4.332031 8.972656 4.832031 8.753906 5.355469 Z M 8.753906 5.355469 " fill-opacity="1" fill-rule="nonzero"/><path fill="#ffffff" d="M 8.105469 8.644531 L 9.1875 8.644531 C 9.1875 8.15625 9.234375 7.667969 9.328125 7.1875 L 8.246094 6.976562 C 8.144531 7.527344 8.097656 8.085938 8.105469 8.644531 Z M 8.105469 8.644531 " fill-opacity="1" fill-rule="nonzero"/><path fill="#ffffff" d="M 24.316406 8.644531 C 24.316406 9.140625 24.269531 9.632812 24.171875 10.121094 L 25.25 10.332031 C 25.351562 9.773438 25.402344 9.210938 25.398438 8.644531 Z M 24.316406 8.644531 " fill-opacity="1" fill-rule="nonzero"/><path fill="#ffffff" d="M 9.570312 13.460938 C 9.886719 13.933594 10.246094 14.367188 10.648438 14.769531 L 11.417969 14.007812 C 11.066406 13.652344 10.75 13.273438 10.472656 12.859375 Z M 9.570312 13.460938 " fill-opacity="1" fill-rule="nonzero"/><path fill="#ffffff" d="M 22.078125 3.28125 C 22.433594 3.628906 22.746094 4.007812 23.023438 4.421875 L 23.921875 3.816406 C 23.605469 3.34375 23.246094 2.910156 22.839844 2.511719 Z M 22.078125 3.28125 " fill-opacity="1" fill-rule="nonzero"/><path fill="#ffffff" d="M 20.03125 0.644531 L 19.621094 1.621094 C 20.082031 1.8125 20.519531 2.042969 20.933594 2.316406 L 21.527344 1.414062 C 21.054688 1.109375 20.554688 0.851562 20.03125 0.644531 Z M 20.03125 0.644531 " fill-opacity="1" fill-rule="nonzero"/><path fill="#ffffff" d="M 18.203125 1.222656 L 18.410156 0.140625 C 17.859375 0.0429688 17.308594 -0.00390625 16.75 0 L 16.75 1.082031 C 17.238281 1.082031 17.722656 1.128906 18.203125 1.222656 Z M 18.203125 1.222656 " fill-opacity="1" fill-rule="nonzero"/><path fill="#ffffff" d="M 24.726562 5.304688 L 23.730469 5.722656 C 23.921875 6.179688 24.066406 6.652344 24.164062 7.136719 L 25.246094 6.925781 C 25.128906 6.367188 24.957031 5.828125 24.726562 5.304688 Z M 24.726562 5.304688 " fill-opacity="1" fill-rule="nonzero"/><path fill="#ffffff" d="M 10.625 2.550781 L 11.390625 3.3125 C 11.738281 2.957031 12.117188 2.644531 12.53125 2.367188 L 11.929688 1.46875 C 11.457031 1.785156 11.023438 2.144531 10.625 2.550781 Z M 10.625 2.550781 " fill-opacity="1" fill-rule="nonzero"/><path fill="#ffffff" d="M 15.039062 0.167969 C 14.480469 0.28125 13.941406 0.445312 13.417969 0.664062 L 13.839844 1.664062 C 14.296875 1.46875 14.765625 1.324219 15.253906 1.226562 Z M 15.039062 0.167969 " fill-opacity="1" fill-rule="nonzero"/><path fill="#ffffff" d="M 23.941406 13.445312 C 24.257812 12.972656 24.523438 12.476562 24.742188 11.953125 L 23.742188 11.535156 C 23.554688 11.996094 23.320312 12.433594 23.046875 12.84375 Z M 23.941406 13.445312 " fill-opacity="1" fill-rule="nonzero"/><path fill="#ffffff" d="M 21.558594 15.832031 C 22.03125 15.515625 22.46875 15.15625 22.867188 14.75 L 22.101562 13.988281 C 21.75 14.34375 21.371094 14.65625 20.960938 14.933594 Z M 21.558594 15.832031 " fill-opacity="1" fill-rule="nonzero"/><path fill="#ffffff" d="M 11.957031 15.84375 C 12.429688 16.15625 12.925781 16.421875 13.449219 16.636719 L 13.867188 15.636719 C 13.40625 15.453125 12.96875 15.21875 12.558594 14.941406 Z M 11.957031 15.84375 " fill-opacity="1" fill-rule="nonzero"/><path fill="#ffffff" d="M 15.28125 16.070312 L 15.074219 17.152344 C 15.628906 17.253906 16.1875 17.300781 16.75 17.292969 L 16.75 16.210938 C 16.257812 16.210938 15.765625 16.164062 15.28125 16.070312 Z M 15.28125 16.070312 " fill-opacity="1" fill-rule="nonzero"/><path fill="#ffffff" d="M 18.238281 16.066406 L 18.441406 17.144531 C 19 17.035156 19.539062 16.871094 20.0625 16.652344 L 19.648438 15.652344 C 19.191406 15.839844 18.722656 15.976562 18.238281 16.066406 Z M 18.238281 16.066406 " fill-opacity="1" fill-rule="nonzero"/></svg>